<ttFont>
          <CharString index="0">
            rmoveto
            -188 171 -143 260 159 140 53 62 81 vhcurveto
            34 -96 rlineto
            507 522 hlineto
            327 -234 161 -423 -60 callsubr
            vhcurveto
            -76 callsubr
            return
          </CharString>
          <CharString index="1">
            1353 rmoveto
            -74 callsubr
            -103 callsubr
            vhcurveto
            -497 -197 rmoveto
            -100 callgsubr
            return
          </CharString>
          <CharString index="2">
            -101 callsubr
            -98 callgsubr
            return
          </CharString>
          <CharString index="3">
            -105 callgsubr
            -79 callgsubr
          </CharString>
          <CharString index="4">
            188 79 88 109 109 -79 88 -55 callgsubr
            -88 -109 return
          </CharString>
          <CharString index="5">
            -94 callsubr
            -68 callgsubr
            vhcurveto
            -100 callsubr
            return
          </CharString>
          <CharString index="6">
            -42 callsubr
            127 17 150 50 124 63 124 -63 150 -50 127 -17 66 -12 callgsubr
            return
          </CharString>
          <CharString index="7">
            -96 callgsubr
            160 86 -87 -469 return
          </CharString>
          <CharString index="8">
            -85 callgsubr
            -220 -942 vlineto
            -78 callsubr
            return
          </CharString>
          <CharString index="9">
            -93 callgsubr
            -59 callgsubr
            vhcurveto
            8 callsubr
            return
          </CharString>
          <CharString index="10">
            -83 callgsubr
            -91 callsubr
            return
          </CharString>
          <CharString index="11">
            -98 callsubr
            -81 callsubr
            return
          </CharString>
          <CharString index="12">
            236 -540 rlineto
            653 hlineto
            -312 615 rlineto
            162 80 84 140 174 vvcurveto
            284 -224 194 -442 vhcurveto
            -857 hlineto
            return
          </CharString>
          <CharString index="13">
            -71 callgsubr
            -84 callgsubr
            return
          </CharString>
          <CharString index="14">
            7 callgsubr
            51 15 38 hhcurveto
            176 -235 rlineto
            223 129 105 146 146 -108 102 -171 -118 -117 -51 -112 -151 hvcurveto
            7 callsubr
            return
          </CharString>
          <CharString index="15">
            578 -766 rmoveto
            1 548 rlineto
            34 hlineto
            189 114 -113 -161 -161 -114 -114 -189 1 hvcurveto
            return
          </CharString>
          <CharString index="16">
            -89 callgsubr
            21 callgsubr
            return
          </CharString>
          <CharString index="17">
            217 90 101 127 126 -52 callsubr
            -126 return
          </CharString>
          <CharString index="18">
            -66 callgsubr
            33 callsubr
            151 113 185 -90 callgsubr
            return
          </CharString>
          <CharString index="19">
            -61 0 212 -191 -21 453 200 179 178 return
          </CharString>
          <CharString index="20">
            285 vstem
            180 743 rmoveto
            -424 354 -342 440 441 354 342 424 423 -354 344 -441 -440 -354 -344 -423 vhcurveto
            285 hmoveto
            282 228 226 281 282 228 -226 -282 -283 -228 -226 -282 -281 -228 226 283 vhcurveto
            return
          </CharString>
          <CharString index="21">
            rmoveto
            3 1 -1 -1 rlineto
            884 301 -225 hlineto
            -277 -55 12 9 rlineto
            356 199 146 154 183 vvcurveto
            174 -161 122 -279 -222 -160 -77 -79 -97 vhcurveto
            123 -165 rlineto
            47 58 78 29 66 hhcurveto
            82 72 -46 -87 -73 -51 -102 -147 -151 hvcurveto
            -260 -267 rlineto
            endchar
          </CharString>
          <CharString index="22">
            187 152 113 184 -90 callgsubr
            -66 callgsubr
            return
          </CharString>
          <CharString index="23">
            -51 callgsubr
            314 -265 201 -447 return
          </CharString>
          <CharString index="24">
            50 -82 -129 37 -139 hhcurveto
            -281 -178 return
          </CharString>
          <CharString index="25">
            137 114 98 145 1 hvcurveto
            -272 136 41 100 54 70 87 91 rlinecurve
            -115 90 rlineto
            -188 -151 -113 -184 -152 vvcurveto
            return
          </CharString>
          <CharString index="26">
            -100 -53 69 262 -69 callsubr
            return
          </CharString>
          <CharString index="27">
            -102 callsubr
            -42 callgsubr
            hvcurveto
            endchar
          </CharString>
          <CharString index="28">
            -96 callsubr
            -9 callsubr
            hvcurveto
            endchar
          </CharString>
          <CharString index="29">
            -214 -110 -100 -175 -161 -123 100 212 vhcurveto
            944 return
          </CharString>
          <CharString index="30">
            rmoveto
            242 hlineto
            -16 -42 -37 -94 -94 -119 -214 -76 rlinecurve
            70 -164 275 88 136 129 108 257 rlinecurve
            return
          </CharString>
          <CharString index="31">
            73 -135 rlineto
            27 73 92 14 81 hhcurveto
            return
          </CharString>
          <CharString index="32">
            -129 -72 -30 callsubr
            -99 -41 -147 -105 hvcurveto
            return
          </CharString>
          <CharString index="33">
            -109 78 -88 188 return
          </CharString>
          <CharString index="34">
            -91 callgsubr
            rlineto
            hintmask 00101000
            -23 callgsubr
          </CharString>
          <CharString index="35">
            -188 -188 return
          </CharString>
          <CharString index="36">
            -99 callsubr
            vlineto
            hintmask 01100000
            -578 hlineto
            endchar
          </CharString>
          <CharString index="37">
            rmoveto
            -90 callsubr
            -127 90 -101 218 hvcurveto
            return
          </CharString>
          <CharString index="38">
            263 53 69 100 100 53 -69 -263 return
          </CharString>
          <CharString index="39">
            1585 rmoveto
            -80 callgsubr
            9 callgsubr
            hvcurveto
            -799 hmoveto
            -94 callgsubr
            return
          </CharString>
          <CharString index="40">
            -64 callgsubr
            -75 95 rlineto
            -54 -77 -48 -18 -65 -25 callgsubr
            return
          </CharString>
          <CharString index="41">
            -45 callsubr
            hintmask 11010000
            -69 callgsubr
            return
          </CharString>
          <CharString index="42">
            16 callgsubr
            229 -43 callgsubr
            hlineto
            -49 callgsubr
            return
          </CharString>
          <CharString index="43">
            -38 -37 -33 -14 -48 hhcurveto
            -76 -38 36 106 hvcurveto
            606 return
          </CharString>
          <CharString index="44">
            86 168 rlineto
            76 -130 -195 64 -236 hhcurveto
            -547 -340 -343 -425 hvcurveto
            endchar
          </CharString>
          <CharString index="45">
            -82 callsubr
            -147 102 -96 152 vhcurveto
            endchar
          </CharString>
          <CharString index="46">
            45 callsubr
            rmoveto
            54 77 48 17 65 128 93 -71 153 hhcurveto
            return
          </CharString>
          <CharString index="47">
            -164 -158 -25 -59 -144 return
          </CharString>
          <CharString index="48">
            35 callsubr
            668 hlineto
            38 40 63 40 60 hhcurveto
            67 29 -61 callgsubr
            -184 -171 -156 -70 -108 -149 vhcurveto
            return
          </CharString>
          <CharString index="49">
            -65 0 229 398 -18 callsubr
            return
          </CharString>
          <CharString index="50">
            -229 84 -176 101 -154 115 return
          </CharString>
          <CharString index="51">
            -75 95 -43 callsubr
            -129 -92 72 -153 hhcurveto
            return
          </CharString>
          <CharString index="52">
            rmoveto
            hintmask 10001000
            -72 callgsubr
            hintmask 01001000
            24 callgsubr
          </CharString>
          <CharString index="53">
            rmoveto
            -72 115 177 -45 163 hhcurveto
            287 218 139 210 167 -139 142 -255 8 hvcurveto
            332 292 rlineto
            123 -809 vlineto
            return
          </CharString>
          <CharString index="54">
            199 83 92 116 -6 callgsubr
            -198 return
          </CharString>
          <CharString index="55">
            -90 101 -217 -218 -90 -101 return
          </CharString>
          <CharString index="56">
            565 289 312 457 return
          </CharString>
          <CharString index="57">
            110 -238 rlineto
            653 hlineto
            return
          </CharString>
          <CharString index="58">
            hhcurveto
            -78 -51 49 72 hvcurveto
            endchar
          </CharString>
          <CharString index="59">
            43 50 98 vhcurveto
            -17 callsubr
            return
          </CharString>
          <CharString index="60">
            81 88 hhcurveto
            85 44 -76 -172 hvcurveto
            return
          </CharString>
          <CharString index="61">
            rmoveto
            -65 callsubr
            hlineto
            hintmask 00010100
            15 callsubr
          </CharString>
          <CharString index="62">
            rlineto
            102 hlineto
            99 36 -30 -43 -54 -59 -47 -120 -34 -20 1 6 -43 hvcurveto
            return
          </CharString>
          <CharString index="63">
            -50 callgsubr
            -579 return
          </CharString>
          <CharString index="64">
            rlineto
            -54 -77 -48 -18 -65 return
          </CharString>
          <CharString index="65">
            -12 callsubr
            rmoveto
            return
          </CharString>
          <CharString index="66">
            -44 callsubr
            hlineto
            endchar
          </CharString>
          <CharString index="67">
            -42 callsubr
            65 114 -57 callsubr
            rlinecurve
            -154 -187 -46 callgsubr
            rlinecurve
            return
          </CharString>
          <CharString index="68">
            -47 callgsubr
            61 14 callgsubr
            28 callsubr
            return
          </CharString>
          <CharString index="69">
            72 -121 417 54 245 290 -4 376 rlinecurve
            16 callgsubr
            return
          </CharString>
          <CharString index="70">
            -44 -19 -30 callgsubr
            return
          </CharString>
          <CharString index="71">
            232 187 139 228 185 vvcurveto
            182 -126 119 -187 -169 -140 -122 -179 -1 vhcurveto
            endchar
          </CharString>
          <CharString index="72">
            rmoveto
            -206 -46 -92 -106 -81 vhcurveto
            -38 callsubr
            24 callsubr
          </CharString>
          <CharString index="73">
            429 401 -429 401 -177 -165 253 -236 return
          </CharString>
          <CharString index="74">
            1621 rmoveto
            54 77 48 18 65 return
          </CharString>
          <CharString index="75">
            rmoveto
            -271 137 -127 241 return
          </CharString>
          <CharString index="76">
            207 1118 208 return
          </CharString>
          <CharString index="77">
            72 -153 hhcurveto
            -116 return
          </CharString>
          <CharString index="78">
            7 callgsubr
            52 15 39 hhcurveto
            return
          </CharString>
          <CharString index="79">
            -21 22 -21 539 121 608 218 return
          </CharString>
          <CharString index="80">
            -139 211 hstemhm
            return
          </CharString>
          <CharString index="81">
            -3 callsubr
            397 -20 callgsubr
            -547 vlineto
            endchar
          </CharString>
          <CharString index="82">
            -17 callgsubr
            1105 14 callgsubr
            28 callgsubr
            return
          </CharString>
          <CharString index="83">
            -54 callgsubr
            -984 713 hintmask 11101000
            return
          </CharString>
          <CharString index="84">
            220 789 hlineto
            944 -789 rlineto
            -3 callgsubr
            -943 792 rlineto
            return
          </CharString>
          <CharString index="85">
            -13 callsubr
            -342 -475 -223 -244 -270 hvcurveto
            endchar
          </CharString>
          <CharString index="86">
            -78 rmoveto
            168 -99 1051 1847 -168 100 rlineto
            return
          </CharString>
          <CharString index="87">
            115 80 -27 callgsubr
            return
          </CharString>
          <CharString index="88">
            -75 96 -43 callsubr
            return
          </CharString>
          <CharString index="89">
            229 401 229 return
          </CharString>
          <CharString index="90">
            -80 140 rlineto
            -30 return
          </CharString>
          <CharString index="91">
            608 419 hlineto
            444 1067 -34 callgsubr
            return
          </CharString>
          <CharString index="92">
            -39 callsubr
            -1210 19 callgsubr
            return
          </CharString>
          <CharString index="93">
            rmoveto
            -33 callgsubr
            -429 -401 rlineto
            endchar
          </CharString>
          <CharString index="94">
            128 108 98 108 142 -138 142 return
          </CharString>
          <CharString index="95">
            1172 return
          </CharString>
          <CharString index="96">
            hmoveto
            611 hlineto
            688 316 330 420 472 -316 264 -688 hvcurveto
            -611 return
          </CharString>
          <CharString index="97">
            -81 callsubr
            -9 callsubr
            hvcurveto
            endchar
          </CharString>
          <CharString index="98">
            -262 -53 -69 -100 return
          </CharString>
          <CharString index="99">
            hhcurveto
            -361 -224 -203 -312 hvcurveto
            560 19 rmoveto
            226 100 95 133 40 45 return
          </CharString>
          <CharString index="100">
            280 -142 118 return
          </CharString>
          <CharString index="101">
            -115 -61 63 66 66 61 63 115 115 61 -63 -66 -66 -61 -63 -115 hvcurveto
            return
          </CharString>
          <CharString index="102">
            -659 -19 callgsubr
            136 713 -659 579 hintmask 10010000
            return
          </CharString>
          <CharString index="103">
            rlineto
            262 167 -146 -371 -372 -163 -161 -267 hvcurveto
            endchar
          </CharString>
          <CharString index="104">
            rmoveto
            -149 -26 -78 -83 -88 vhcurveto
            43 -94 rlineto
            return
          </CharString>
          <CharString index="105">
            -16 callgsubr
            6 callgsubr
            return
          </CharString>
          <CharString index="106">
            21 callsubr
            578 return
          </CharString>
          <CharString index="107">
            12 callgsubr
            432 713 -472 232 hintmask 10010000
            return
          </CharString>
          <CharString index="108">
            5 callsubr
            605 713 13 220 hintmask 10010000
            return
          </CharString>
          <CharString index="109">
            216 300 150 126 289 -123 123 hstemhm
            200 960 return
          </CharString>
          <CharString index="110">
            200 132 42 callsubr
            31 callgsubr
            return
          </CharString>
          <CharString index="111">
            199 83 93 115 -6 callgsubr
            -199 -83 -92 -116 return
          </CharString>
          <CharString index="112">
            47 -23 253 1341 14 callgsubr
            return
          </CharString>
          <CharString index="113">
            218 564 218 hstem
            571 197 18 callgsubr
            return
          </CharString>
          <CharString index="114">
            20 callgsubr
            -479 hlineto
            return
          </CharString>
          <CharString index="115">
            712 -331 rmoveto
            return
          </CharString>
          <CharString index="116">
            -543 vlineto
            endchar
          </CharString>
          <CharString index="117">
            35 callgsubr
            hintmask 01100000
            -579 hlineto
            endchar
          </CharString>
          <CharString index="118">
            58 32 -36 callgsubr
            return
          </CharString>
          <CharString index="119">
            -57 -97 -112 -79 -143 -19 rrcurveto
            return
          </CharString>
          <CharString index="120">
            rmoveto
            253 hlineto
            return
          </CharString>
          <CharString index="121">
            rmoveto
            -53 callsubr
            return
          </CharString>
          <CharString index="122">
            -1256 hlineto
            endchar
          </CharString>
          <CharString index="123">
            -123 119 238 171 return
          </CharString>
          <CharString index="124">
            rmoveto
            201 660 -201 hlineto
            return
          </CharString>
          <CharString index="125">
            30 callgsubr
            615 vstem
            return
          </CharString>
          <CharString index="126">
            153 hhcurveto
            115 return
          </CharString>
          <CharString index="127">
            229 -518 return
          </CharString>
          <CharString index="128">
            190 hmoveto
            return
          </CharString>
          <CharString index="129">
            496 rmoveto
            -231 162 -211 344 -57 vhcurveto
            return
          </CharString>
          <CharString index="130">
            vstem
            103 742 rmoveto
            -421 340 -346 547 return
          </CharString>
          <CharString index="131">
            -578 vlineto
            endchar
          </CharString>
          <CharString index="132">
            103 746 -71 callgsubr
            return
          </CharString>
          <CharString index="133">
            hlineto
            57 353 rlineto
            -183 hlineto
            -57 -353 rlineto
            return
          </CharString>
          <CharString index="134">
            -75 188 hvcurveto
            return
          </CharString>
          <CharString index="135">
            103 1708 return
          </CharString>
          <CharString index="136">
            22 callgsubr
            140 return
          </CharString>
          <CharString index="137">
            -36 callgsubr
            612 vlineto
            return
          </CharString>
          <CharString index="138">
            189 6 callgsubr
            890 vstem
            120 return
          </CharString>
          <CharString index="139">
            -104 -110 -165 110 vlineto
            endchar
          </CharString>
          <CharString index="140">
            116 -91 rlineto
            187 return
          </CharString>
          <CharString index="141">
            -51 -123 -66 -87 -108 -113 return
          </CharString>
          <CharString index="142">
            hmoveto
            543 return
          </CharString>
          <CharString index="143">
            -116 -79 -41 -146 -105 hvcurveto
            return
          </CharString>
          <CharString index="144">
            -7 callsubr
            -184 return
          </CharString>
          <CharString index="145">
            hstem
            200 189 vstem
            200 return
          </CharString>
          <CharString index="146">
            933 hintmask 11010000
            return
          </CharString>
          <CharString index="147">
            146 394 hstemhm
            return
          </CharString>
          <CharString index="148">
            -490 1976 return
          </CharString>
          <CharString index="149">
            43 50 98 hvcurveto
            return
          </CharString>
          <CharString index="150">
            hstemhm
            140 return
          </CharString>
          <CharString index="151">
            1332 return
          </CharString>
          <CharString index="152">
            1168 return
          </CharString>
        <CharString name=".notdef">
          -877 endchar
        </CharString>
        <CharString name="A">
          -17 callgsubr
          hstem
          28 callgsubr
          vstem
          55 -1 -91 callgsubr
          -23 callgsubr
        </CharString>
        <CharString name="AE">
          781 0 229 8 229 161 -18 callsubr
          hstemhm
          3 2289 hintmask 00000000
          hintmask 10111000
          3 -1 rmoveto
          hintmask 01111000
          309 1 167 237 rlineto
          hintmask 10111000
          557 -237 16 callgsubr
          230 hlineto
          -678 -1 rlineto
          398 518 20 callsubr
          vlineto
          -49 callgsubr
          -1488 hlineto
          101 -244 rlineto
          hintmask 01111000
          -265 -776 rmoveto
          396 560 rlineto
          -560 vlineto
          endchar
        </CharString>
        <CharString name="Aacute">
          -8 callgsubr
          417 -103 callgsubr
          -297 -1685 -73 callsubr
        </CharString>
        <CharString name="Acircumflex">
          -25 callsubr
          -1524 39 callsubr
          307 -104 callgsubr
          -187 -1686 -4 callgsubr
          hintmask 00101000
          -91 callsubr
          -23 callgsubr
        </CharString>
        <CharString name="Adieresis">
          -17 callgsubr
          1119 334 hstemhm
          40 44 callsubr
          -1317 1711 hintmask 11001000
          1105 -68 callsubr
          -251 -1586 13 callsubr
          hintmask 00110000
          -97 callsubr
          -23 callgsubr
        </CharString>
        <CharString name="Agrave">
          -8 callgsubr
          352 -99 callgsubr
          -451 -1921 -73 callsubr
        </CharString>
        <CharString name="Aring">
          -17 callgsubr
          926 94 285 121 hstemhm
          28 callgsubr
          -1470 260 352 260 hintmask 11111000
          55 -1 -4 callgsubr
          -716 1462 rlineto
          hintmask 11110110
          81 48 37 67 66 vvcurveto
          11 callgsubr
          -74 46 -77 106 -48 vhcurveto
          153 -332 rlineto
          hintmask 11111000
          131 402 rmoveto
          hintmask 11110110
          -6 callsubr
          -209 -1047 rmoveto
          21 callgsubr
          -23 callgsubr
        </CharString>
        <CharString name="Atilde">
          -17 callgsubr
          1155 -7 callgsubr
          28 callgsubr
          -1527 939 hintmask 11001000
          314 -92 callgsubr
          -184 -1717 13 callsubr
          -52 callgsubr
          hintmask 00000000
          -50 callsubr
          hintmask 00010100
          -89 callgsubr
          hintmask 00100100
          21 callgsubr
          -23 callgsubr
        </CharString>
        <CharString name="B">
          226 0 218 483 181 386 218 hstem
          190 1568 34 callgsubr
          906 hlineto
          442 220 217 228 167 -103 119 -207 59 hvcurveto
          126 75 68 110 118 vvcurveto
          238 -224 155 -442 vhcurveto
          -786 hlineto
          578 -604 rmoveto
          1 386 rlineto
          61 hlineto
          220 70 -91 -102 -102 -70 -92 -220 1 hvcurveto
          -62 -664 rmoveto
          483 104 vlineto
          181 98 -118 -121 -135 -84 -109 -237 hvcurveto
          endchar
        </CharString>
        <CharString name="C">
          -27 -25 1535 hstem
          103 1448 23 callsubr
          38 callgsubr
          vhcurveto
          -86 168 rlineto
          -39 -80 -101 -25 -95 hhcurveto
          -65 callgsubr
        </CharString>
        <CharString name="Ccedilla">
          -87 -399 174 200 1535 hstemhm
          103 1448 -894 604 hintmask 11100000
          103 742 rmoveto
          -364 254 -308 423 -76 vhcurveto
          -58 -219 -66 callsubr
          24 97 rlineto
          -1 12 12 0 13 hhcurveto
          38 callgsubr
          hvcurveto
          -86 168 rlineto
          -39 -80 -101 -25 -95 hhcurveto
          -58 callgsubr
          hintmask 11100000
          -63 callsubr
        </CharString>
        <CharString name="D">
          290 0 218 1050 218 hstem
          190 1615 vstem
          190 -11 callsubr
          hlineto
          578 -1268 rmoveto
          1 1050 -4 callsubr
        </CharString>
        <CharString name="E">
          -58 callsubr
          hstem
          190 16 callgsubr
          34 callgsubr
          -65 callsubr
          15 callsubr
        </CharString>
        <CharString name="Eacute">
          -24 callsubr
          527 -103 callgsubr
          -272 -1684 -46 callsubr
        </CharString>
        <CharString name="Ecircumflex">
          -54 callgsubr
          -1094 933 hintmask 11101000
          417 -104 callgsubr
          -162 -1685 rmoveto
          16 callgsubr
          229 -678 398 518 hlineto
          hintmask 00010100
          20 callsubr
          vlineto
          -49 callgsubr
          15 callsubr
        </CharString>
        <CharString name="Edieresis">
          -58 callsubr
          99 334 hstemhm
          150 44 callsubr
          -1292 16 callgsubr
          hintmask 11100100
          955 1752 rmoveto
          9 callgsubr
          -80 callgsubr
          vhcurveto
          -539 -167 rmoveto
          -94 callgsubr
          -226 -1585 rmoveto
          16 callgsubr
          hlineto
          hintmask 00011000
          229 -43 callgsubr
          vlineto
          -49 callgsubr
          15 callsubr
        </CharString>
        <CharString name="Egrave">
          -24 callsubr
          462 -99 callgsubr
          -426 -1920 -46 callsubr
        </CharString>
        <CharString name="Eth">
          392 0 218 442 182 426 218 hstemhm
          121 971 -800 1615 hintmask 11101000
          292 -11 callsubr
          -644 hlineto
          hintmask 11110000
          -171 -182 hlineto
          hintmask 11101000
          171 hlineto
          578 -442 rmoveto
          442 vlineto
          hintmask 11110000
          222 182 -222 hlineto
          1 426 -4 callsubr
        </CharString>
        <CharString name="Euro">
          113 -23 244 246 190 145 189 269 250 hstem
          60 1554 vstem
          60 468 13 callsubr
          -309 101 279 -182 356 hhcurveto
          229 218 74 86 118 hvcurveto
          -70 151 rlineto
          -37 -79 -94 -30 -92 hhcurveto
          -211 -144 77 169 -67 hvcurveto
          340 hlineto
          63 190 rlineto
          -444 hlineto
          -2 26 -1 27 28 vvcurveto
          22 1 21 1 21 vhcurveto
          493 hlineto
          63 189 rlineto
          -512 hlineto
          182 75 160 87 179 hhcurveto
          78 55 -17 -35 73 hvcurveto
          93 175 rlineto
          68 -93 -182 59 -198 hhcurveto
          -407 -277 -227 -291 -101 hvcurveto
          -254 -189 215 hlineto
          -2 -22 -1 -21 -22 vvcurveto
          -28 1 -26 2 -26 vhcurveto
          -215 hlineto
          endchar
        </CharString>
        <CharString name="F">
          -153 21 -21 597 229 431 229 hstem
          190 1219 18 callgsubr
          597 470 229 -470 hlineto
          1 431 rlineto
          640 229 -1219 hlineto
          endchar
        </CharString>
        <CharString name="G">
          183 127 91 1048 244 hstem
          1579 85 23 callsubr
          279 266 76 76 130 vhcurveto
          -1 2 rlineto
          404 vlineto
          104 189 rlineto
          -583 -503 hlineto
          -65 callgsubr
        </CharString>
        <CharString name="H">
          346 21 -21 634 229 hstem
          659 108 428 114 18 callgsubr
          634 427 -634 -44 callsubr
          -623 -427 623 -578 hlineto
          endchar
        </CharString>
        <CharString name="I">
          -659 22 callgsubr
          190 579 vstem
          190 hmoveto
          -41 callsubr
        </CharString>
        <CharString name="IJ">
          358 41 callsubr
          -1465 -21 hstemhm
          190 579 286 730 hintmask 01100000
          1055 -369 rmoveto
          -38 callsubr
          vlineto
          hintmask 10010000
          -578 -1476 hlineto
          -206 -46 -92 -106 -81 vhcurveto
          -865 369 rmoveto
          -41 callsubr
        </CharString>
        <CharString name="Iacute">
          -5 callsubr
          201 -103 callgsubr
          54 -1684 10 callsubr
        </CharString>
        <CharString name="Icircumflex">
          -659 -19 callgsubr
          26 933 -769 579 hintmask 10010000
          91 -101 callgsubr
          hintmask 01100000
          -95 callgsubr
          164 -1685 rmoveto
          -41 callsubr
        </CharString>
        <CharString name="Idieresis">
          -659 21 -21 1585 334 hstemhm
          -176 44 callsubr
          -966 579 hintmask 10010000
          889 1585 rmoveto
          -80 callgsubr
          hvcurveto
          hintmask 01100000
          9 callgsubr
          vhcurveto
          -799 hmoveto
          -94 callgsubr
          100 -1585 rmoveto
          -41 callsubr
        </CharString>
        <CharString name="Igrave">
          -5 callsubr
          136 -99 callgsubr
          -100 -1920 10 callsubr
        </CharString>
        <CharString name="Itilde">
          -659 21 -21 5 callgsubr
          23 939 -772 579 hintmask 10001000
          98 -81 callgsubr
          hintmask 00000000
          -19 callsubr
          hhcurveto
          hintmask 00110000
          -75 callsubr
          167 -1716 rmoveto
          578 hlineto
          hintmask 01010000
          1 1486 rlineto
          -579 hlineto
          endchar
        </CharString>
        <CharString name="J">
          -614 41 callsubr
          hstem
          83 730 vstem
          235 10 -35 callsubr
        </CharString>
        <CharString name="Jcircumflex">
          -614 41 callsubr
          85 14 callgsubr
          57 933 -907 730 hintmask 10010000
          122 -104 callgsubr
          hintmask 01100000
          178 -1675 -35 callsubr
        </CharString>
        <CharString name="K">
          233 20 -21 22 -21 hstemhm
          190 1657 hintmask 01100000
          -1 callsubr
          334 hlineto
          96 132 rlineto
          hintmask 10100000
          332 -467 rlineto
          651 hlineto
          -621 849 474 638 rlineto
          -289 hlineto
          -643 -861 rlineto
          861 24 callsubr
        </CharString>
        <CharString name="L">
          -235 0 229 hstem
          190 1146 34 callgsubr
          1146 229 -568 hlineto
          1 1257 rlineto
          -579 hlineto
          endchar
        </CharString>
        <CharString name="Lslash">
          -168 0 229 261 552 hstemhm
          66 1122 -883 1146 hintmask 11010000
          305 hmoveto
          1146 229 -568 532 hlineto
          hintmask 11100000
          305 109 -62 172 -243 -87 1 531 rlineto
          hintmask 11010000
          -579 -739 hlineto
          hintmask 11100000
          -239 -85 61 -172 rlineto
          hintmask 11010000
          178 64 rlineto
          endchar
        </CharString>
        <CharString name="M">
          665 22 callgsubr
          190 220 34 callgsubr
          220 759 hlineto
          552 -778 554 778 rlineto
          -759 577 1486 -398 vlineto
          -534 -778 -562 778 rlineto
          -409 hlineto
          endchar
        </CharString>
        <CharString name="N">
          288 22 callgsubr
          190 220 1085 220 34 callgsubr
          -23 callsubr
          -362 hlineto
          endchar
        </CharString>
        <CharString name="Nacute">
          288 -19 callgsubr
          190 220 234 713 138 220 hintmask 10101000
          709 -103 callgsubr
          -454 -1684 rmoveto
          -23 callsubr
          hintmask 01010000
          -362 hlineto
          endchar
        </CharString>
        <CharString name="Ntilde">
          288 21 -21 5 callgsubr
          190 220 121 939 25 220 hintmask 10010100
          606 -92 callgsubr
          -341 -1716 rmoveto
          220 hlineto
          hintmask 00000000
          789 vlineto
          944 -789 rlineto
          hintmask 00101000
          -3 callgsubr
          rlineto
          hintmask 01001000
          -943 792 rlineto
          -362 hlineto
          endchar
        </CharString>
        <CharString name="O">
          -47 callgsubr
          hstem
          28 callsubr
          vstem
          103 746 -80 callsubr
        </CharString>
        <CharString name="OE">
          952 -23 207 -185 230 -229 184 443 -18 callsubr
          -184 208 hstemhm
          103 2360 hintmask 00000000
          hintmask 10010110
          25 callsubr
          90 83 8 15 77 vhcurveto
          494 hlineto
          hintmask 01011010
          -1 762 230 -43 callgsubr
          vlineto
          -49 callgsubr
          -1253 hlineto
          15 -77 -85 9 -91 hhcurveto
          hintmask 10010110
          -68 callgsubr
          hvcurveto
          hintmask 00110110
          -77 callgsubr
        </CharString>
        <CharString name="Oacute">
          -15 callsubr
          666 -103 callgsubr
          -498 -938 -82 callgsubr
        </CharString>
        <CharString name="Ocircumflex">
          -39 callsubr
          -1320 39 callsubr
          556 -104 callgsubr
          -388 -939 -94 callsubr
          vhcurveto
          hintmask 00101000
          -68 callgsubr
          hvcurveto
          -77 callgsubr
        </CharString>
        <CharString name="Odieresis">
          -47 callgsubr
          75 334 hstemhm
          28 callsubr
          -1522 44 callsubr
          hintmask 11010000
          1094 1752 rmoveto
          9 callgsubr
          -80 callgsubr
          vhcurveto
          -539 -167 rmoveto
          -94 callgsubr
          hintmask 00101000
          -452 -839 -80 callsubr
        </CharString>
        <CharString name="Ograve">
          -15 callsubr
          601 -99 callgsubr
          -652 -1174 -82 callgsubr
        </CharString>
        <CharString name="Oslash">
          385 -165 1825 -1683 -31 callsubr
          hstemhm
          146 1708 -1506 1276 hintmask 10001000
          348 -91 rmoveto
          111 -74 139 209 rlineto
          hintmask 01110000
          -44 113 134 -23 155 hhcurveto
          -51 callsubr
          290 -120 232 -235 130 hvcurveto
          hintmask 10001000
          125 188 -111 74 -138 -207 rlineto
          hintmask 01110000
          37 -107 -126 20 -142 hhcurveto
          -68 callgsubr
          -284 111 -228 220 -132 hvcurveto
          hintmask 01101000
          284 427 rmoveto
          -6 61 -2 72 84 vvcurveto
          469 86 87 161 86 65 -26 -97 42 vhcurveto
          -398 -839 rmoveto
          439 660 rlineto
          8 -69 4 -84 -101 vvcurveto
          -42 callgsubr
          -96 -69 31 125 -40 vhcurveto
          endchar
        </CharString>
        <CharString name="Otilde">
          -47 callgsubr
          111 -7 callgsubr
          28 callsubr
          -1323 939 hintmask 11001000
          563 -92 callgsubr
          -385 -970 -71 callgsubr
          vhcurveto
          hintmask 00000000
          -84 callgsubr
          hvcurveto
          hintmask 00010100
          -68 callgsubr
          hvcurveto
          -96 callgsubr
          hvcurveto
          hintmask 00100100
          160 86 -87 -469 -42 callgsubr
          hvcurveto
          endchar
        </CharString>
        <CharString name="P">
          96 21 -21 486 6 callsubr
          486 -5 callgsubr
          -715 hlineto
          578 -782 -15 callgsubr
        </CharString>
        <CharString name="Q">
          297 -269 268 -22 -31 callsubr
          hstemhm
          103 1707 hintmask 01110000
          25 callsubr
          vhcurveto
          20 hlineto
          hintmask 10110000
          -171 136 209 -75 337 hhcurveto
          151 268 rlineto
          -182 hlineto
          -151 -1 -99 9 -65 21 rrcurveto
          329 106 168 264 348 vvcurveto
          451 -289 313 -564 -68 callgsubr
          vhcurveto
          hintmask 01110000
          -77 callgsubr
        </CharString>
        <CharString name="R">
          -21 callgsubr
          hstemhm
          619 149 hintmask 01111000
          -1 callsubr
          539 122 hlineto
          hintmask 10111000
          -95 callsubr
          hintmask 01111000
          -92 callsubr
          endchar
        </CharString>
        <CharString name="Racute">
          -21 callgsubr
          85 14 callgsubr
          516 713 -610 149 hintmask 01111100
          581 -103 callgsubr
          -326 -1684 -87 callgsubr
        </CharString>
        <CharString name="Rcaron">
          -21 callgsubr
          85 14 callgsubr
          406 933 -720 149 hintmask 01111100
          872 -67 callgsubr
          -682 -1571 -87 callgsubr
        </CharString>
        <CharString name="Rcommaaccent">
          247 -1 callgsubr
          94 -28 callsubr
          hstemhm
          619 149 -6 354 hintmask 10011110
          -1 callsubr
          539 122 hlineto
          hintmask 10101110
          -95 callsubr
          hintmask 10011110
          -92 callsubr
          hintmask 01101101
          -41 -924 rmoveto
          -37 callgsubr
          rrcurveto
          hintmask 10101101
          89 -69 rlineto
          -28 callgsubr
          -112 -65 -65 -65 vhcurveto
          endchar
        </CharString>
        <CharString name="S">
          3 -23 245 1060 228 hstem
          93 1441 vstem
          93 131 rmoveto
          -105 211 206 -49 246 hhcurveto
          511 267 212 294 215 -143 154 -258 86 hvcurveto
          -120 40 rlineto
          -165 55 -52 48 59 vvcurveto
          68 67 74 127 76 109 -26 -54 85 vhcurveto
          108 195 rlineto
          54 -117 -197 59 -229 hhcurveto
          -465 -222 -242 -268 -205 131 -154 255 -87 hvcurveto
          179 -61 rlineto
          139 -47 28 -53 -48 vvcurveto
          -75 -69 -48 -153 -132 -166 36 72 -140 vhcurveto
          endchar
        </CharString>
        <CharString name="T">
          -138 21 -21 1258 229 hstem
          27 1426 vstem
          451 hmoveto
          578 1258 424 229 -1426 -229 424 hlineto
          endchar
        </CharString>
        <CharString name="Thorn">
          96 21 -21 266 6 callsubr
          266 -5 callgsubr
          -137 220 -578 hlineto
          578 -1002 -15 callgsubr
        </CharString>
        <CharString name="U">
          47 -23 253 hstem
          1331 220 vstem
          184 573 -99 callsubr
          24 callsubr
        </CharString>
        <CharString name="Uacute">
          1 callsubr
          670 -103 callgsubr
          -421 -1111 -71 callsubr
        </CharString>
        <CharString name="Ucircumflex">
          5 callsubr
          495 933 -97 220 hintmask 10010000
          560 -104 callgsubr
          -311 -1112 -85 callgsubr
          vlineto
          hintmask 01100000
          -220 -942 hlineto
          -78 callsubr
          24 callsubr
        </CharString>
        <CharString name="Udieresis">
          47 -23 253 1355 334 hstemhm
          293 44 callsubr
          -294 220 hintmask 10010000
          1098 1752 rmoveto
          9 callgsubr
          -80 callgsubr
          vhcurveto
          -539 -167 rmoveto
          -94 callgsubr
          hintmask 01100000
          -375 -1012 -99 callsubr
          24 callsubr
        </CharString>
        <CharString name="Ugrave">
          1 callsubr
          605 -99 callgsubr
          -575 -1347 -71 callsubr
        </CharString>
        <CharString name="V">
          0 22 callgsubr
          41 1564 vstem
          613 1 rmoveto
          471 -1 521 1487 -261 -1 -322 -955 -348 955 29 callgsubr
          endchar
        </CharString>
        <CharString name="W">
          739 22 callgsubr
          41 2303 vstem
          519 1 rmoveto
          471 -1 218 714 220 -713 471 -1 445 1487 -261 -1 -246 -955 -234 955 29 callgsubr
          121 -392 -163 -563 -254 955 29 callgsubr
          endchar
        </CharString>
        <CharString name="X">
          10 20 -21 22 -21 661 163 hstemhm
          30 1582 hintmask 10110000
          34 -1 rmoveto
          262 hlineto
          337 520 326 -520 rlineto
          hintmask 01110000
          653 1 -516 824 434 662 rlineto
          -261 hlineto
          -296 -464 -290 464 rlineto
          -653 hlineto
          482 -772 rlineto
          endchar
        </CharString>
        <CharString name="Y">
          -11 22 callgsubr
          13 1556 vstem
          517 hmoveto
          -16 callsubr
          504 -1067 rlineto
          endchar
        </CharString>
        <CharString name="Yacute">
          -11 -19 callgsubr
          13 1556 -1020 713 hintmask 10100000
          614 -103 callgsubr
          -32 -1684 rmoveto
          -16 callsubr
          hintmask 01010000
          504 -1067 rlineto
          endchar
        </CharString>
        <CharString name="Z">
          -45 0 220 1048 218 hstem
          56 1461 vstem
          56 hmoveto
          1403 220 -616 hlineto
          674 1266 rlineto
          -1358 -218 594 hlineto
          endchar
        </CharString>
        <CharString name="a">
          -88 callsubr
          hstemhm
          884 61 hintmask 01111000
          75 312 -107 callsubr
          -105 callgsubr
          hintmask 10111000
          -79 callgsubr
        </CharString>
        <CharString name="aacute">
          -29 callgsubr
          485 -102 callgsubr
          -345 -974 -107 callgsubr
        </CharString>
        <CharString name="acircumflex">
          -53 callgsubr
          310 933 -359 61 hintmask 01111100
          375 -105 callsubr
          -235 -974 -107 callgsubr
        </CharString>
        <CharString name="acute">
          -665 17 callgsubr
          713 vstem
          185 -102 callgsubr
          endchar
        </CharString>
        <CharString name="acute.cap">
          -665 -2 callsubr
          713 vstem
          185 -103 callgsubr
          endchar
        </CharString>
        <CharString name="adieresis">
          -88 callsubr
          40 callsubr
          128 45 callgsubr
          -540 61 hintmask 01111100
          891 -106 callsubr
          -319 -844 -107 callgsubr
        </CharString>
        <CharString name="ae">
          641 -19 178 324 170 180 177 hstem
          75 2137 vstem
          75 311 rmoveto
          -187 165 -143 277 218 210 88 77 111 vhcurveto
          -100 118 179 -65 234 hhcurveto
          204 130 42 callsubr
          -17 callsubr
          -43 -80 -25 -88 hhcurveto
          -161 -79 84 149 -30 hvcurveto
          754 91 rlineto
          235 -195 292 -449 -121 -140 -30 -60 -122 vhcurveto
          60 -112 -144 30 -159 hhcurveto
          -60 callsubr
          hvcurveto
          -76 callsubr
          180 81 -71 -195 hvcurveto
          -83 callsubr
          -149 -193 hvcurveto
          1371 240 rmoveto
          200 3 62 82 88 hhcurveto
          84 44 -76 -172 hvcurveto
          -1092 -252 rmoveto
          70 49 50 90 40 37 -10 -20 33 vhcurveto
          1 -168 rlineto
          -29 -35 -43 -14 -43 -49 callsubr
        </CharString>
        <CharString name="agrave">
          -29 callgsubr
          420 -88 callgsubr
          -499 -1274 -107 callgsubr
        </CharString>
        <CharString name="ampersand">
          242 -25 228 581 207 -161 164 327 190 hstemhm
          1431 193 hintmask 11011000
          180 472 rmoveto
          -250 248 -247 480 642 155 435 374 -117 vhcurveto
          173 hlineto
          71 207 rlineto
          -536 hlineto
          -498 296 -242 -290 -283 hhcurveto
          -182 -146 121 185 hvcurveto
          hintmask 10111000
          176 134 145 273 vhcurveto
          1 hlineto
          51 160 rlineto
          -207 20 -85 95 84 vvcurveto
          79 73 53 131 57 68 -10 -23 65 vhcurveto
          55 160 rlineto
          40 -121 -145 23 -148 hhcurveto
          -350 -244 -129 -202 -95 54 -95 147 -67 hvcurveto
          -250 -91 -118 -170 -190 vvcurveto
          endchar
        </CharString>
        <CharString name="aring">
          -88 callsubr
          172 100 166 100 hstemhm
          464 183 237 61 -44 183 hintmask 0111111010000000
          774 -62 callgsubr
          -699 -970 -107 callsubr
          hintmask 1011111100000000
          -104 callsubr
        </CharString>
        <CharString name="asciicircum">
          -256 291 694 hstem
          121 1119 vstem
          186 291 rmoveto
          158 42 186 123 150 153 150 -152 187 -123 158 -43 65 -12 callgsubr
          -229 162 -178 193 -153 225 -154 -225 -176 -193 -229 -162 rrcurveto
          endchar
        </CharString>
        <CharString name="asciitilde">
          -252 394 211 -83 210 hstemhm
          120 1126 hintmask 00000000
          hintmask 10100000
          195 422 rmoveto
          76 114 73 24 96 129 92 -128 153 hhcurveto
          hintmask 01100000
          152 104 46 169 138 hvcurveto
          -76 95 rlineto
          -76 -114 -72 -23 -97 -128 -93 127 -153 hhcurveto
          hintmask 10100000
          -152 -103 -46 -169 -138 hvcurveto
          endchar
        </CharString>
        <CharString name="asterisk">
          -390 739 913 6 callgsubr
          988 vstem
          493 739 rmoveto
          138 297 136 -280 239 173 -225 209 327 47 -92 281 -311 -169 67 355 rlineto
          -296 hlineto
          68 -364 -332 172 -92 -281 378 -51 -244 -216 rlineto
          endchar
        </CharString>
        <CharString name="at">
          845 -373 176 184 218 484 200 284 186 30 callgsubr
          215 1674 214 vstem
          180 469 rmoveto
          -575 542 -267 526 141 140 19 38 128 vhcurveto
          22 159 rlineto
          -27 -125 -125 -13 -119 hhcurveto
          -499 -416 228 437 380 321 325 568 437 348 -185 -365 -233 -143 -185 -71 -22 -11 17 36 13 1 15 3 18 hvcurveto
          97 585 rlineto
          -490 hlineto
          -6 -52 rlineto
          35 -90 -126 32 -128 hhcurveto
          -320 -209 -194 -247 -242 199 -190 308 141 129 40 52 89 hvcurveto
          -76 58 92 -60 137 hhcurveto
          283 293 259 374 458 -445 281 -555 -700 -403 -456 -434 hvcurveto
          973 19 rmoveto
          118 69 83 123 23 22 -3 -5 21 vhcurveto
          -42 -400 rlineto
          -2 -11 -12 -1 -12 hhcurveto
          -107 -74 87 123 hvcurveto
          endchar
        </CharString>
        <CharString name="atilde">
          -88 callsubr
          158 8 callgsubr
          307 939 -362 61 hintmask 01111001
          382 45 callsubr
          rmoveto
          hintmask 01110101
          54 77 48 17 65 hhcurveto
          hintmask 01111010
          128 93 -71 153 hhcurveto
          -20 callsubr
          hintmask 01110101
          -75 95 rlineto
          hintmask 01111001
          -54 -77 -48 -18 -65 hhcurveto
          hintmask 01110110
          -25 callgsubr
          hintmask 01111001
          -232 -951 -107 callsubr
          -105 callgsubr
          hintmask 10111001
          -79 callgsubr
        </CharString>
        <CharString name="b">
          49 -19 175 -156 156 642 212 hstemhm
          640 44 hintmask 01110000
          141 hmoveto
          497 hlineto
          28 81 rlineto
          hintmask 10110000
          -59 78 118 -41 145 -39 callgsubr
          -156 -132 -67 -71 -76 hvcurveto
          778 -544 vlineto
          hintmask 01110000
          544 -1451 rmoveto
          553 vlineto
          27 35 45 19 49 -13 callgsubr
          -40 -43 16 27 -32 hvcurveto
          endchar
        </CharString>
        <CharString name="backslash">
          -391 40 callgsubr
          93 1003 vstem
          823 -23 rmoveto
          273 147 -730 1386 -273 -148 rlineto
          endchar
        </CharString>
        <CharString name="bar">
          -1029 -495 2146 38 callsubr
          -495 rmoveto
          189 2146 -189 hlineto
          endchar
        </CharString>
        <CharString name="braceleft">
          -472 -490 2182 6 callgsubr
          956 vstem
          401 37 rmoveto
          -266 219 -221 405 -40 vhcurveto
          51 123 rlineto
          -143 59 -84 134 185 vvcurveto
          120 vlineto
          223 -141 160 -208 87 vhcurveto
          208 87 141 160 223 vvcurveto
          120 vlineto
          185 84 134 143 58 vhcurveto
          -51 124 rlineto
          -405 -41 -219 -221 -266 vvcurveto
          -217 vlineto
          -155 -108 -139 -173 -52 vhcurveto
          173 -52 108 -139 -155 vvcurveto
          endchar
        </CharString>
        <CharString name="braceright">
          -471 -490 2182 hstem
          70 957 vstem
          297 11 rmoveto
          -185 -84 -134 -143 -59 vhcurveto
          52 -123 rlineto
          405 40 218 221 266 vvcurveto
          218 vlineto
          155 108 139 174 52 vhcurveto
          -174 52 -108 139 155 vvcurveto
          217 vlineto
          266 -218 221 -405 41 vhcurveto
          -52 -124 rlineto
          143 -58 84 -134 -185 vvcurveto
          -120 vlineto
          -223 141 -160 208 -87 vhcurveto
          -208 -87 -141 -160 -223 vvcurveto
          endchar
        </CharString>
        <CharString name="bracketleft">
          25 callgsubr
          220 645 vstem
          220 -496 rmoveto
          513 hlineto
          82 165 rlineto
          -159 1817 127 hlineto
          82 165 rlineto
          -645 hlineto
          endchar
        </CharString>
        <CharString name="bracketright">
          25 callgsubr
          92 645 vstem
          141 -331 rmoveto
          83 -165 rlineto
          513 2147 -645 hlineto
          82 -165 rlineto
          127 -1817 hlineto
          endchar
        </CharString>
        <CharString name="brokenbar">
          -1029 -497 2147 38 callsubr
          739 rmoveto
          189 911 -189 hlineto
          -1237 vmoveto
          -910 189 910 vlineto
          endchar
        </CharString>
        <CharString name="bullet">
          -417 391 622 30 callgsubr
          841 vstem
          600 391 rmoveto
          298 123 138 174 171 -123 139 -298 -296 -124 -139 -171 -174 124 -138 296 hvcurveto
          endchar
        </CharString>
        <CharString name="c">
          -316 -19 1029 hstem
          74 1178 vstem
          74 496 rmoveto
          -271 225 -244 479 200 132 43 50 98 vhcurveto
          31 callgsubr
          -164 16 callsubr
          54 114 75 66 hvcurveto
          254 -347 rlineto
          -22 callsubr
        </CharString>
        <CharString name="caron">
          -445 1112 414 6 callgsubr
          933 vstem
          587 -70 callgsubr
          endchar
        </CharString>
        <CharString name="caron.cap">
          -445 -2 callsubr
          933 vstem
          586 -67 callgsubr
          endchar
        </CharString>
        <CharString name="ccedilla">
          -316 -399 174 206 1029 hstemhm
          74 1178 -796 604 hintmask 11100000
          74 22 callsubr
          -59 -222 -66 callsubr
          26 103 rlineto
          8 8 -1 8 hhcurveto
          3 callsubr
          -164 16 callsubr
          54 114 75 66 hvcurveto
          254 -347 rlineto
          hintmask 11100000
          -22 callsubr
        </CharString>
        <CharString name="cedilla">
          -776 -399 174 hstem
          148 604 vstem
          292 72 rmoveto
          -79 -297 -45 callsubr
          -69 callgsubr
          49 193 rlineto
          endchar
        </CharString>
        <CharString name="cent">
          -283 874 58 hstem
          84 1178 vstem
          84 22 callsubr
          -327 189 311 9 vlineto
          3 callsubr
          -162 16 callsubr
          53 113 74 66 hvcurveto
          254 -346 rlineto
          -13 callsubr
          -341 hvcurveto
          -1 vlineto
          -1 1 rlineto
          -3 287 -189 -302 hlineto
          -344 -57 -162 -212 -230 vvcurveto
          endchar
        </CharString>
        <CharString name="circumflex">
          -445 17 callgsubr
          933 vstem
          185 -105 callsubr
          endchar
        </CharString>
        <CharString name="circumflex.cap">
          -445 -2 callsubr
          933 vstem
          185 -104 callgsubr
          endchar
        </CharString>
        <CharString name="colon">
          -643 -18 1028 18 callsubr
          488 555 -70 callsubr
          -308 -345 -73 callgsubr
        </CharString>
        <CharString name="comma">
          -635 -464 901 30 callgsubr
          623 vstem
          180 136 rmoveto
          335 -166 34 callsubr
          rlinecurve
          142 -111 rlineto
          -36 callsubr
        </CharString>
        <CharString name="commaaccent">
          -1024 -1 callgsubr
          hstemhm
          120 354 hintmask 00000000
          hintmask 10100000
          120 -204 rmoveto
          hintmask 01100000
          -72 callgsubr
          hintmask 10100000
          24 callgsubr
        </CharString>
        <CharString name="copyright">
          331 -23 257 1017 259 30 callgsubr
          285 1019 -87 callsubr
          251 1 rmoveto
          -136 117 -125 187 90 73 29 27 42 vhcurveto
          -33 78 rlineto
          -11 -15 -37 -13 -40 hhcurveto
          -83 -64 58 94 89 58 60 82 28 30 -7 -11 27 hvcurveto
          34 73 rlineto
          27 -35 -79 28 -87 hhcurveto
          -186 -109 -128 -132 hvcurveto
          endchar
        </CharString>
        <CharString name="currency">
          68 211 178 509 183 hstem
          396 180 510 181 vstem
          308 191 rmoveto
          134 -134 201 196 rlineto
          -27 57 63 -15 68 hhcurveto
          72 68 17 31 60 hvcurveto
          204 -202 134 134 -191 191 rlineto
          56 73 33 91 100 vvcurveto
          94 -31 87 -51 72 vhcurveto
          206 201 -135 134 -213 -208 rlineto
          35 -63 -72 20 -77 hhcurveto
          -72 -68 -18 -30 -59 hvcurveto
          -202 201 -135 -134 190 -190 rlineto
          -56 -73 -33 -92 -99 vvcurveto
          -104 36 -95 60 -75 vhcurveto
          84 272 rmoveto
          141 114 113 141 141 114 -113 -141 -141 -114 -114 -141 -141 -114 114 141 vhcurveto
          endchar
        </CharString>
        <CharString name="d">
          51 -19 212 -193 193 -172 -21 835 175 hstemhm
          986 41 hintmask 10011000
          26 callgsubr
          159 135 70 73 75 vhcurveto
          hintmask 00111000
          41 -124 rlineto
          500 1651 -543 -730 hlineto
          53 -78 -112 36 -136 -8 callsubr
          -17 -29 33 vhcurveto
          -548 vlineto
          hintmask 01011000
          -28 -36 -46 27 callgsubr
        </CharString>
        <CharString name="degree">
          -600 830 151 378 151 hstemhm
          120 290 198 290 hintmask 00000000
          hintmask 11110000
          509 830 rmoveto
          245 144 144 196 196 -144 144 -245 -244 -145 -144 -196 -196 145 -144 244 hvcurveto
          151 vmoveto
          -56 -43 45 144 144 43 23 callgsubr
          endchar
        </CharString>
        <CharString name="dieresis">
          -82 1156 394 6 callgsubr
          45 callgsubr
          vstem
          883 -106 callsubr
          endchar
        </CharString>
        <CharString name="dieresis.cap">
          -46 1585 334 6 callgsubr
          44 callsubr
          vstem
          1185 -68 callsubr
          endchar
        </CharString>
        <CharString name="divide">
          -340 -18 278 145 189 135 278 hstem
          200 878 vstem
          640 729 rmoveto
          132 55 62 78 76 -55 62 -132 -134 -55 -62 -76 -78 55 -62 134 hvcurveto
          -440 -323 rmoveto
          878 -1 rlineto
          189 vlineto
          -878 1 rlineto
          251 -473 rmoveto
          -77 55 -63 134 132 55 63 77 77 -55 61 -132 -134 -55 -61 -77 vhcurveto
          endchar
        </CharString>
        <CharString name="dollar">
          -41 -23 58 44 callsubr
          141 hstem
          716 162 vstem
          120 127 rmoveto
          192 -103 187 -45 217 -2 rrcurveto
          -304 162 311 vlineto
          382 39 197 197 265 vvcurveto
          205 -119 155 -232 83 vhcurveto
          -134 48 rlineto
          -150 54 -49 48 62 vvcurveto
          66 57 56 107 81 94 -31 -54 79 vhcurveto
          112 222 -96 47 -153 48 -176 11 rlinecurve
          224 -162 -225 vlineto
          -378 -30 -175 -226 -250 vvcurveto
          -205 119 -153 237 -86 vhcurveto
          167 -61 rlineto
          123 -46 31 -53 -53 vvcurveto
          -70 -54 -49 -121 -115 -157 44 91 -150 vhcurveto
          endchar
        </CharString>
        <CharString name="dotaccentcmb">
          -814 596 416 6 callgsubr
          564 vstem
          402 596 rmoveto
          4 callsubr
          -115 83 -93 199 hvcurveto
          endchar
        </CharString>
        <CharString name="dotlessi">
          -795 29 callsubr
          543 vstem
          140 hmoveto
          -40 callgsubr
        </CharString>
        <CharString name="dotlessj">
          -790 -495 1486 hstem
          42 656 vstem
          151 -86 -26 callsubr
        </CharString>
        <CharString name="e">
          -32 callgsubr
          hstem
          75 1327 vstem
          75 501 -106 callgsubr
        </CharString>
        <CharString name="eacute">
          -14 callgsubr
          446 -102 callgsubr
          hintmask 11110000
          -306 -785 -106 callgsubr
        </CharString>
        <CharString name="ecircumflex">
          -44 callgsubr
          -1131 933 hintmask 11101000
          336 -105 callsubr
          hintmask 11110000
          -196 -785 -106 callgsubr
        </CharString>
        <CharString name="edieresis">
          -32 callgsubr
          40 callsubr
          75 1327 -1313 45 callgsubr
          hintmask 11101000
          852 -106 callsubr
          hintmask 11110000
          -280 -655 -106 callgsubr
        </CharString>
        <CharString name="egrave">
          -14 callgsubr
          381 -88 callgsubr
          hintmask 11110000
          -460 -1085 -106 callgsubr
        </CharString>
        <CharString name="eight">
          94 40 callgsubr
          176 1397 vstem
          176 413 rmoveto
          -231 225 -205 444 403 325 169 309 194 -125 117 -148 87 vhcurveto
          100 91 61 103 111 vvcurveto
          180 -158 172 -412 -460 -194 -214 -215 -131 70 -93 98 -73 vhcurveto
          -148 -91 -81 -132 -148 vvcurveto
          641 774 rmoveto
          79 84 60 117 145 93 -91 -100 -63 -36 -69 -82 -66 vhcurveto
          -168 80 -153 62 108 vvcurveto
          -436 -750 rmoveto
          100 59 94 119 60 vhcurveto
          213 -110 242 -76 -166 vvcurveto
          -95 -82 -82 -187 -227 -137 120 155 vhcurveto
          endchar
        </CharString>
        <CharString name="emdash">
          190 499 183 hstem
          160 1488 vstem
          160 499 rmoveto
          1488 183 -1488 hlineto
          endchar
        </CharString>
        <CharString name="endash">
          -175 499 183 hstem
          160 1123 vstem
          160 499 rmoveto
          1123 183 -1123 hlineto
          endchar
        </CharString>
        <CharString name="equal">
          -340 481 180 149 180 hstem
          200 878 vstem
          200 810 rmoveto
          878 180 -878 hlineto
          -509 vmoveto
          878 180 -878 hlineto
          endchar
        </CharString>
        <CharString name="eth">
          55 -19 184 558 177 hstem
          1029 113 vstem
          139 465 rmoveto
          -263 244 -221 467 463 235 212 317 299 -216 275 -244 230 vhcurveto
          276 124 -81 183 -359 -162 -84 70 -82 64 -73 58 rlinecurve
          -120 -97 58 -61 53 -62 48 -63 rlinecurve
          -302 -136 80 -181 334 150 69 -119 50 -123 32 -127 rlinecurve
          44 -92 -109 24 -131 hhcurveto
          -329 -187 -213 -222 hvcurveto
          532 -30 rmoveto
          213 88 75 119 54 46 -15 -29 39 vhcurveto
          8 -61 4 -61 -62 vvcurveto
          -245 -78 -85 -101 -87 -92 93 177 vhcurveto
          endchar
        </CharString>
        <CharString name="exclam">
          -643 -18 1503 18 callsubr
          218 661 rmoveto
          541 824 -541 hlineto
          -38 -1275 -73 callgsubr
        </CharString>
        <CharString name="exclamdown">
          -643 -495 1503 18 callsubr
          488 553 rmoveto
          217 90 101 126 127 -52 callsubr
          -127 -126 90 -101 218 hvcurveto
          -270 -224 rmoveto
          -824 541 824 vlineto
          endchar
        </CharString>
        <CharString name="f">
          -521 21 -21 826 165 hstem
          68 1149 vstem
          178 35 callsubr
          826 187 hlineto
          103 165 rlineto
          -290 540 hlineto
          260 -354 rlineto
          121 115 83 140 150 -174 116 -263 -364 -238 -184 -387 hvcurveto
          32 callsubr
        </CharString>
        <CharString name="five">
          -54 -23 252 505 185 hstem
          137 1273 vstem
          137 150 rmoveto
          -107 141 217 -66 236 hhcurveto
          397 282 187 312 248 -179 195 -390 -115 -136 -17 -33 -108 hvcurveto
          23 245 rlineto
          812 372 -1030 hlineto
          -62 -803 rlineto
          31 87 114 20 93 hhcurveto
          238 101 -130 -128 -137 -116 -110 -197 -85 -114 20 45 -88 hvcurveto
          endchar
        </CharString>
        <CharString name="four">
          96 21 -21 279 216 hstem
          112 1474 vstem
          112 280 rmoveto
          124 hlineto
          570 -1 rlineto
          -279 541 279 239 217 -239 990 -554 vlineto
          -681 -990 rlineto
          265 hmoveto
          429 657 rlineto
          -657 vlineto
          endchar
        </CharString>
        <CharString name="g">
          -133 -494 165 600 182 448 108 hstem
          834 171 vstem
          122 89 rmoveto
          -160 136 -112 285 -3 vhcurveto
          313 -3 rlineto
          82 -1 37 -25 -34 vvcurveto
          -40 -37 -40 -224 -198 -164 26 76 -168 vhcurveto
          -81 -151 rlineto
          -67 138 236 -49 267 hhcurveto
          470 221 152 213 164 -132 135 -315 hvcurveto
          -260 hlineto
          -318 -56 39 70 15 2 15 6 14 hvcurveto
          -34 100 124 -18 145 hhcurveto
          413 243 151 226 171 -138 119 -245 48 hvcurveto
          2 315 1 1 234 -315 rlineto
          87 104 89 130 134 -110 112 -188 -203 -97 -131 -185 hvcurveto
          -129 vlineto
          2 -33 -35 1 -35 hhcurveto
          -413 -243 -135 -227 -119 67 -98 124 -67 hvcurveto
          -90 -76 -54 -98 -101 vvcurveto
          609 364 rmoveto
          -62 -35 43 150 143 32 38 65 65 32 -38 -142 -152 -36 -42 -61 hvcurveto
          endchar
        </CharString>
        <CharString name="germandbls">
          235 -19 179 -160 53 -32 -21 826 165 540 135 hstemhm
          68 1715 hintmask 00000000
          hintmask 00111100
          178 35 callsubr
          1531 hlineto
          216 127 -101 -138 hvcurveto
          -226 -259 -48 -256 vvcurveto
          -138 65 -86 145 -99 vhcurveto
          94 -63 rlineto
          107 -73 38 -29 -43 vvcurveto
          -41 -26 -30 -83 vhcurveto
          hintmask 10011100
          -70 -75 24 48 -95 hvcurveto
          -104 -179 rlineto
          -53 126 127 -19 168 hhcurveto
          hintmask 01011100
          390 171 178 195 hvcurveto
          hintmask 10011100
          126 -49 103 -202 141 vhcurveto
          -71 49 rlineto
          -79 49 -38 44 75 113 145 87 155 vvcurveto
          208 -261 162 -448 -358 -244 -184 -387 vhcurveto
          32 callsubr
        </CharString>
        <CharString name="grave">
          -665 17 callgsubr
          713 vstem
          768 -40 callsubr
          endchar
        </CharString>
        <CharString name="grave.cap">
          -665 -2 callsubr
          713 vstem
          120 -99 callgsubr
          endchar
        </CharString>
        <CharString name="greater">
          -584 155 1012 hstem
          175 736 vstem
          297 155 rmoveto
          614 506 -614 506 -122 -154 439 -352 -439 -352 rlineto
          endchar
        </CharString>
        <CharString name="guillemotleft">
          -29 43 callgsubr
          43 callsubr
          606 57 606 hintmask 11000000
          803 609 rmoveto
          429 -401 -33 callgsubr
          rlineto
          hintmask 10100000
          -663 -802 -14 callsubr
        </CharString>
        <CharString name="guillemotright">
          -32 43 callgsubr
          hstemhm
          82 606 57 606 hintmask 11000000
          745 373 rmoveto
          177 -165 -34 callsubr
          rlineto
          -739 -401 rmoveto
          -34 callsubr
          rlineto
          hintmask 10100000
          -253 -236 rlineto
          endchar
        </CharString>
        <CharString name="guilsinglleft">
          -692 43 callgsubr
          hstem
          140 606 vstem
          569 208 -14 callsubr
        </CharString>
        <CharString name="guilsinglright">
          -694 43 callgsubr
          hstem
          177 606 vstem
          354 208 rmoveto
          -34 callsubr
          -253 -236 rlineto
          endchar
        </CharString>
        <CharString name="h">
          -3 29 callsubr
          1345 vstem
          140 -59 callsubr
          819 9 callsubr
        </CharString>
        <CharString name="hbar">
          4 21 -21 1227 189 hstemhm
          43 890 -786 1345 hintmask 11010000
          147 -59 callsubr
          395 vlineto
          hintmask 11100000
          243 189 -243 235 hlineto
          hintmask 11010000
          -543 -235 hlineto
          hintmask 11100000
          -104 -189 hlineto
          hintmask 11010000
          104 hlineto
          endchar
        </CharString>
        <CharString name="hyphen">
          -611 494 188 hstem
          160 687 vstem
          160 494 rmoveto
          687 188 -687 hlineto
          endchar
        </CharString>
        <CharString name="i">
          -795 22 callgsubr
          130 563 vstem
          411 1156 2 callgsubr
          -116 83 -92 198 hvcurveto
          -271 -1156 rmoveto
          -40 callgsubr
        </CharString>
        <CharString name="iacute">
          1 callgsubr
          119 -102 callgsubr
          hintmask 01100000
          86 -1286 rmoveto
          -40 callgsubr
        </CharString>
        <CharString name="icircumflex">
          -755 21 -21 41 callgsubr
          hstemhm
          -36 933 -737 543 hintmask 10010000
          29 -101 callsubr
          hintmask 01100000
          -98 callgsubr
          196 -1286 rmoveto
          -40 callgsubr
        </CharString>
        <CharString name="idieresis">
          -502 21 -21 1156 394 hstemhm
          -90 45 callgsubr
          -918 543 hintmask 10010000
          939 1156 rmoveto
          -103 callsubr
          hvcurveto
          hintmask 01100000
          -74 callsubr
          vhcurveto
          -763 hmoveto
          -100 callgsubr
          112 -1156 rmoveto
          -40 callgsubr
        </CharString>
        <CharString name="igrave">
          1 callgsubr
          702 -40 callsubr
          -562 -1172 rmoveto
          543 hlineto
          hintmask 01100000
          991 9 callsubr
        </CharString>
        <CharString name="ij">
          39 -495 2067 -1551 -21 hstemhm
          130 563 182 662 hintmask 01100000
          973 1364 rmoveto
          -116 84 -92 198 -53 callsubr
          -84 -92 -116 vhcurveto
          -562 -208 2 callgsubr
          hvcurveto
          hintmask 10010000
          -116 83 -92 198 vhcurveto
          464 -1557 rmoveto
          43 -94 rlineto
          393 -20 callgsubr
          -543 -1077 vlineto
          -149 -26 -78 -83 -88 vhcurveto
          -735 401 rmoveto
          -40 callgsubr
        </CharString>
        <CharString name="itilde">
          -699 21 -21 45 callsubr
          8 callgsubr
          -10 939 -740 543 hintmask 10001000
          65 -64 callgsubr
          hintmask 00000000
          -56 callsubr
          hintmask 01010000
          36 callsubr
          199 -1263 rmoveto
          543 991 hlineto
          hintmask 00110000
          3 callgsubr
        </CharString>
        <CharString name="j">
          -794 -495 2067 hstem
          42 662 vstem
          422 1156 14 callsubr
          -84 -92 -116 -116 84 -92 198 hvcurveto
          -271 -1242 -3 callsubr
          393 -20 callgsubr
          9 callsubr
        </CharString>
        <CharString name="jcircumflex">
          -790 -495 1486 181 0 callgsubr
          -59 933 -832 656 hintmask 10010000
          6 -105 callsubr
          hintmask 01100000
          210 -1372 -26 callsubr
        </CharString>
        <CharString name="k">
          -56 29 callsubr
          1419 vstem
          -48 callgsubr
          endchar
        </CharString>
        <CharString name="kcommaaccent">
          -56 -1 callgsubr
          95 -21 43 callsubr
          1419 -886 354 hintmask 00110000
          -48 callgsubr
          hintmask 00000000
          533 -1855 -55 callsubr
        </CharString>
        <CharString name="kgreenlandic">
          -62 22 callgsubr
          137 1419 vstem
          137 -76 callgsubr
          417 9 callsubr
        </CharString>
        <CharString name="l">
          -795 29 callsubr
          543 vstem
          140 35 callsubr
          1651 3 callgsubr
        </CharString>
        <CharString name="ldot">
          -212 21 -21 595 416 43 callsubr
          543 149 564 hintmask 10100000
          140 35 callsubr
          1651 -543 hlineto
          hintmask 01010000
          692 -848 rmoveto
          -115 83 -93 199 4 callsubr
          vhcurveto
          endchar
        </CharString>
        <CharString name="less">
          -584 155 1012 hstem
          123 736 vstem
          123 661 rmoveto
          613 -506 123 154 -440 352 440 352 -123 154 rlineto
          endchar
        </CharString>
        <CharString name="logicalnot">
          -378 592 183 hstem
          857 182 vstem
          200 592 rmoveto
          657 -251 hlineto
          183 -1 -1 435 rlineto
          -838 hlineto
          endchar
        </CharString>
        <CharString name="lslash">
          -597 21 -21 529 511 hstemhm
          10 1001 -779 543 hintmask 11010000
          232 35 callsubr
          783 hlineto
          hintmask 11100000
          236 86 -63 171 rlineto
          hintmask 11010000
          -173 -63 rlineto
          674 -543 -869 vlineto
          hintmask 11100000
          -222 -80 61 -173 rlineto
          hintmask 11010000
          161 58 rlineto
          endchar
        </CharString>
        <CharString name="m">
          696 39 callgsubr
          543 202 vstem
          140 hmoveto
          -29 callsubr
          11 callsubr
          705 vlineto
          26 40 41 15 30 hhcurveto
          58 33 -61 callgsubr
          -185 -180 -159 -79 -88 -124 vhcurveto
          115 -56 -104 52 -121 hhcurveto
          -2 callgsubr
          hvcurveto
          7 callsubr
          endchar
        </CharString>
        <CharString name="macron">
          -488 1227 31 callsubr
          1227 33 callgsubr
        </CharString>
        <CharString name="macron.cap">
          -488 1731 31 callsubr
          1731 33 callgsubr
        </CharString>
        <CharString name="mu">
          98 -495 1487 hstem
          744 231 vstem
          200 -495 rmoveto
          517 491 hlineto
          97 22 94 46 83 81 48 -144 rcurveline
          477 991 -541 -696 hlineto
          -38 -37 -33 -14 -48 hhcurveto
          -75 -38 36 106 hvcurveto
          606 -544 vlineto
          endchar
        </CharString>
        <CharString name="multiply">
          -455 139 762 hstem
          200 763 vstem
          200 274 rmoveto
          135 -134 243 243 244 -244 134 134 -243 244 250 250 -134 134 -250 -249 -243 244 -135 -135 243 -244 rlineto
          endchar
        </CharString>
        <CharString name="n">
          -49 39 callgsubr
          vstem
          140 hmoveto
          -29 callsubr
          58 32 -61 callgsubr
          -184 -2 callgsubr
          vhcurveto
          7 callsubr
          endchar
        </CharString>
        <CharString name="nacute">
          -49 0 1010 -26 callgsubr
          415 713 -445 213 hintmask 10010000
          480 -102 callgsubr
          -275 -1286 rmoveto
          -29 callsubr
          58 32 30 callsubr
          hintmask 01100000
          37 callsubr
          -2 callgsubr
          vhcurveto
          7 callsubr
          endchar
        </CharString>
        <CharString name="nine">
          102 533 193 599 185 hstem
          1023 94 vstem
          491 116 rmoveto
          91 -135 rlineto
          607 67 389 403 433 vvcurveto
          310 -200 316 -536 -458 -290 -232 -293 -249 208 -203 371 124 101 23 43 86 vhcurveto
          -69 -247 -162 -141 -262 -95 rrcurveto
          361 610 rmoveto
          -122 -84 80 210 201 77 108 117 99 84 -77 -323 -44 -2 -42 -3 -40 hvcurveto
          -49 -44 -55 -24 -67 hhcurveto
          endchar
        </CharString>
        <CharString name="ntilde">
          -49 0 1010 158 8 callgsubr
          302 939 -558 213 hintmask 10001000
          377 -67 callsubr
          -162 -1263 rmoveto
          -29 callsubr
          hintmask 00000000
          11 callsubr
          vlineto
          hintmask 01010000
          612 vlineto
          37 callsubr
          -2 callgsubr
          vhcurveto
          20 callgsubr
          hintmask 00110000
          -479 hlineto
          endchar
        </CharString>
        <CharString name="numbersign">
          -34 20 -21 330 183 274 182 hstem
          200 1184 vstem
          374 -1 rmoveto
          183 -1 53 331 rlineto
          265 hlineto
          -53 -330 183 -1 53 331 rlineto
          326 183 -296 hlineto
          44 274 rlineto
          252 182 -222 26 callsubr
          -265 26 callsubr
          -330 hlineto
          -1 -182 rlineto
          301 hlineto
          -44 -274 rlineto
          -256 hlineto
          -1 -183 rlineto
          227 hlineto
          213 183 rmoveto
          44 274 rlineto
          265 hlineto
          -44 -274 rlineto
          endchar
        </CharString>
        <CharString name="o">
          -37 callsubr
          hstem
          75 44 callgsubr
          vstem
          75 495 -79 callsubr
        </CharString>
        <CharString name="oacute">
          -11 callgsubr
          496 -102 callgsubr
          -356 -791 -98 callsubr
          hintmask 00101000
          -10 callsubr
        </CharString>
        <CharString name="ocircumflex">
          -38 callgsubr
          -1178 39 callsubr
          386 -105 callsubr
          -246 -791 -93 callgsubr
          vhcurveto
          hintmask 00101000
          -59 callgsubr
          hvcurveto
          8 callsubr
          -10 callsubr
        </CharString>
        <CharString name="odieresis">
          -37 callsubr
          40 callsubr
          75 44 callgsubr
          -1360 45 callgsubr
          hintmask 11010000
          902 -106 callsubr
          hintmask 00101000
          -330 -661 -79 callsubr
        </CharString>
        <CharString name="oe">
          699 -19 178 -178 -30 callgsubr
          -177 177 hstemhm
          75 2195 hintmask 00000000
          hintmask 10011000
          75 495 -60 callgsubr
          163 153 41 69 122 vhcurveto
          -67 113 143 -43 164 hhcurveto
          203 131 42 callsubr
          -81 140 rlineto
          -30 -43 -81 -25 -86 hhcurveto
          hintmask 01101000
          -158 -84 85 148 -29 hvcurveto
          755 -57 callgsubr
          -138 -149 -33 -66 -124 vhcurveto
          hintmask 10011000
          62 -117 -147 37 -163 hhcurveto
          -59 callgsubr
          hvcurveto
          hintmask 01101000
          1428 55 rmoveto
          202 3 62 -47 callsubr
          -998 -421 rmoveto
          -100 -53 69 262 hvcurveto
          hintmask 01011000
          -69 callsubr
          -9 callsubr
          vhcurveto
          endchar
        </CharString>
        <CharString name="ograve">
          -11 callgsubr
          431 -88 callgsubr
          -510 -1091 -96 callsubr
          hvcurveto
          hintmask 00101000
          -9 callsubr
          vhcurveto
          endchar
        </CharString>
        <CharString name="one">
          -415 22 callgsubr
          107 856 vstem
          422 hmoveto
          541 1485 -445 hlineto
          -83 -142 -158 -104 -170 -40 rrcurveto
          -174 315 vlineto
          endchar
        </CharString>
        <CharString name="onehalf">
          1252 -177 1947 -1769 301 541 245 162 13 callgsubr
          -104 1219 -210 919 hintmask 10000010
          -10 callgsubr
          hintmask 01101101
          10 callgsubr
          hintmask 01110101
          42 callgsubr
          1326 -1249 -86 callsubr
        </CharString>
        <CharString name="onequarter">
          1196 21 -21 202 205 843 13 callgsubr
          -104 1872 hintmask 11010100
          -10 callgsubr
          hintmask 11011000
          10 callgsubr
          hintmask 11101000
          42 callgsubr
          1089 -1048 32 callgsubr
          hintmask 11010100
          -35 callgsubr
        </CharString>
        <CharString name="onesuperior">
          -572 1250 13 callgsubr
          hintmask 00000000
          hintmask 01100000
          446 531 rmoveto
          400 1063 -334 hlineto
          hintmask 10100000
          12 callsubr
          42 callgsubr
          endchar
        </CharString>
        <CharString name="ordfeminine">
          -379 827 183 122 173 103 159 hstem
          718 44 vstem
          438 814 rmoveto
          118 103 39 45 60 hvcurveto
          26 -71 rlineto
          374 383 hlineto
          240 -174 117 -311 -122 -117 -18 -43 -106 vhcurveto
          54 -127 rlineto
          20 54 68 9 59 hhcurveto
          127 61 -47 -125 5 hvcurveto
          43 -72 -97 26 -90 hhcurveto
          -207 -131 -110 -139 -138 126 -104 192 hvcurveto
          178 196 rmoveto
          -58 -25 26 34 36 33 26 57 30 35 -9 -17 30 hvcurveto
          -61 vlineto
          -23 -31 -39 -12 -32 hhcurveto
          endchar
        </CharString>
        <CharString name="ordmasculine">
          -333 814 143 468 143 6 callgsubr
          1045 vstem
          642 814 rmoveto
          328 195 147 230 230 -195 147 -328 -328 -194 -147 -230 -230 194 -147 328 hvcurveto
          143 vmoveto
          -74 -38 50 184 185 38 49 74 73 39 -49 -185 -184 -39 -50 -73 hvcurveto
          endchar
        </CharString>
        <CharString name="oslash">
          -27 -265 1504 -1258 -30 callgsubr
          hstemhm
          86 44 callgsubr
          -1195 926 hintmask 10001000
          315 -209 rmoveto
          101 -56 152 266 rlineto
          hintmask 01110000
          -13 70 77 -7 83 hhcurveto
          -51 callgsubr
          229 -141 169 -251 74 hvcurveto
          hintmask 10001000
          123 216 -101 56 -140 -245 rlineto
          hintmask 01110000
          10 -62 -68 6 -72 hhcurveto
          -59 callgsubr
          -221 131 -165 235 -78 hvcurveto
          hintmask 01101000
          197 347 rmoveto
          -3 34 -1 39 44 vvcurveto
          263 53 69 100 35 30 -9 -23 24 vhcurveto
          -196 -577 rmoveto
          250 438 rlineto
          6 -43 4 -53 -65 vvcurveto
          -9 callsubr
          -46 -35 14 40 -26 vhcurveto
          endchar
        </CharString>
        <CharString name="otilde">
          -37 callsubr
          158 8 callgsubr
          75 44 callgsubr
          -1181 939 hintmask 11001000
          393 -67 callsubr
          -243 -768 -60 callgsubr
          vhcurveto
          hintmask 00000000
          -84 callsubr
          -59 callgsubr
          hvcurveto
          hintmask 00100100
          8 callsubr
          -81 callsubr
          hvcurveto
          hintmask 00010100
          -9 callsubr
          vhcurveto
          endchar
        </CharString>
        <CharString name="p">
          51 -19 175 642 193 hstem
          642 41 37 callgsubr
          569 hlineto
          -58 77 113 -35 136 -39 callgsubr
          -158 -135 -76 -73 -75 hvcurveto
          -42 130 rlineto
          -500 hlineto
          543 -786 rmoveto
          543 vlineto
          31 35 47 19 50 -13 callgsubr
          -41 -44 18 31 -33 hvcurveto
          endchar
        </CharString>
        <CharString name="paragraph">
          63 1318 166 hstem
          914 189 111 190 vstem
          836 476 rmoveto
          78 -830 189 1672 111 -1672 190 1672 174 166 hlineto
          -689 1 rlineto
          -512 1 -238 -200 -302 vvcurveto
          -267 207 -241 490 vhcurveto
          endchar
        </CharString>
        <CharString name="parenleft">
          -492 -490 2180 30 callgsubr
          886 vstem
          180 600 rmoveto
          -465 330 -391 505 -234 vhcurveto
          51 123 rlineto
          -235 184 -204 373 410 vvcurveto
          410 204 373 235 184 vhcurveto
          -51 123 rlineto
          -505 -235 -330 -390 -465 vvcurveto
          endchar
        </CharString>
        <CharString name="parenright">
          -492 -490 2180 hstem
          60 886 vstem
          60 -367 rmoveto
          51 -123 rlineto
          505 234 330 391 465 vvcurveto
          465 -330 390 -505 235 vhcurveto
          -51 -123 rlineto
          235 -184 204 -373 -410 vvcurveto
          -410 -204 -373 -235 -184 vhcurveto
          endchar
        </CharString>
        <CharString name="percent">
          819 -23 150 379 150 174 151 378 151 hstem
          150 2137 vstem
          521 115 rmoveto
          144 -135 1283 1417 -144 136 rlineto
          -1171 -703 rmoveto
          303 179 144 4 callgsubr
          -196 179 -144 304 hvcurveto
          151 vmoveto
          -56 -44 45 144 144 44 23 callgsubr
          689 -665 rmoveto
          -196 179 -143 304 303 179 143 4 callgsubr
          vhcurveto
          383 hmoveto
          144 44 46 56 56 42 -50 -140 -140 -42 -49 -56 -56 -44 46 143 vhcurveto
          endchar
        </CharString>
        <CharString name="period">
          -643 -18 455 18 callsubr
          180 210 -73 callgsubr
        </CharString>
        <CharString name="periodcentered">
          -647 558 455 hstem
          176 615 vstem
          484 558 -70 callsubr
          endchar
        </CharString>
        <CharString name="plus">
          -339 648 178 hstem
          549 180 vstem
          549 -22 callgsubr
          endchar
        </CharString>
        <CharString name="plusminus">
          -338 -2 178 472 178 hstemhm
          200 879 -529 180 hintmask 11010000
          550 -22 callgsubr
          hintmask 11100000
          -350 -650 rmoveto
          879 178 -879 hlineto
          endchar
        </CharString>
        <CharString name="q">
          52 -19 212 642 156 hstem
          986 40 vstem
          26 callgsubr
          157 135 69 72 75 vhcurveto
          1 -616 rlineto
          543 hlineto
          -1 1485 rlineto
          -500 hlineto
          -28 -87 rlineto
          65 -78 -118 41 -145 -8 callsubr
          -18 -31 33 vhcurveto
          -545 vlineto
          -28 -35 -47 27 callgsubr
        </CharString>
        <CharString name="question">
          -293 1321 190 hstem
          140 1145 vstem
          458 583 rmoveto
          263 hlineto
          -52 154 rlineto
          411 89 205 140 206 vvcurveto
          175 -169 164 -444 -199 -189 -48 -70 -144 vhcurveto
          53 -160 rlineto
          55 113 106 33 99 hhcurveto
          135 52 -55 -74 -93 -123 -79 -253 -28 hvcurveto
          -799 vmoveto
          -117 84 -94 202 201 84 94 117 117 -84 93 -201 -202 -84 -93 -117 vhcurveto
          endchar
        </CharString>
        <CharString name="questiondown">
          -119 -514 190 hstem
          156 1145 vstem
          548 804 rmoveto
          -117 84 -93 201 202 84 93 117 117 -84 94 -202 -201 -84 -94 -117 vhcurveto
          -392 -979 rmoveto
          -175 169 -164 444 199 189 48 70 144 vhcurveto
          -53 160 rlineto
          -55 -113 -106 -33 -99 hhcurveto
          -135 -52 55 74 93 123 79 253 28 hvcurveto
          -136 409 rlineto
          -263 hlineto
          52 -154 rlineto
          -411 -89 -205 -140 -206 vvcurveto
          endchar
        </CharString>
        <CharString name="quotedbl">
          -677 826 660 hstemhm
          160 201 219 201 hintmask 11000000
          580 826 17 callsubr
          hintmask 10100000
          -420 -660 17 callsubr
          endchar
        </CharString>
        <CharString name="quotedblbase">
          -175 -464 731 43 callsubr
          506 131 506 hintmask 11000000
          777 23 rmoveto
          -89 callsubr
          hintmask 10100000
          -637 hmoveto
          -89 callsubr
          endchar
        </CharString>
        <CharString name="quotedblleft">
          -159 990 730 hstemhm
          160 36 callgsubr
          1067 990 rmoveto
          -82 callsubr
          hintmask 10100000
          -147 102 -96 152 vhcurveto
          -653 hmoveto
          -62 callsubr
        </CharString>
        <CharString name="quotedblright">
          -159 1074 -20 43 callsubr
          36 callgsubr
          883 1074 rmoveto
          116 -91 rlineto
          -85 callsubr
          hintmask 10100000
          -537 -91 rmoveto
          -85 callsubr
          endchar
        </CharString>
        <CharString name="quoteleft">
          -812 990 730 hstem
          160 506 vstem
          414 990 rmoveto
          -62 callsubr
        </CharString>
        <CharString name="quoteright">
          -812 1074 -20 hstem
          140 506 vstem
          346 983 rmoveto
          -85 callsubr
          endchar
        </CharString>
        <CharString name="quotesinglbase">
          -792 -464 731 hstem
          160 506 vstem
          160 23 rmoveto
          -89 callsubr
          endchar
        </CharString>
        <CharString name="quotesingle">
          -1097 826 660 hstem
          160 201 vstem
          160 826 17 callsubr
          endchar
        </CharString>
        <CharString name="r">
          -271 0 1010 hstem
          140 1192 vstem
          140 hmoveto
          -93 callsubr
          endchar
        </CharString>
        <CharString name="rcaron">
          -271 0 1010 102 414 43 callsubr
          1192 -1087 39 callsubr
          712 -70 callgsubr
          hintmask 11100000
          -572 -1112 rmoveto
          -93 callsubr
          endchar
        </CharString>
        <CharString name="rcommaaccent">
          -271 -1 callgsubr
          74 1010 43 callsubr
          1192 -1084 354 hintmask 00110000
          140 hmoveto
          -93 callsubr
          hintmask 00000000
          108 -1195 -55 callsubr
        </CharString>
        <CharString name="registered">
          331 -23 257 448 45 192 106 226 259 30 callgsubr
          285 404 64 112 240 199 -87 callsubr
          239 -255 rmoveto
          229 194 26 hlineto
          94 -194 rlineto
          260 hlineto
          -124 222 rlineto
          62 32 34 55 59 vvcurveto
          103 -81 68 -161 -1 vhcurveto
          -174 -1 rlineto
          -165 hlineto
          229 -235 rmoveto
          129 29 vlineto
          58 25 -21 -42 -41 -25 -25 -60 hvcurveto
          endchar
        </CharString>
        <CharString name="ring">
          -758 1182 100 166 100 6 callgsubr
          183 254 183 vstem
          430 -62 callgsubr
          endchar
        </CharString>
        <CharString name="ring.cap">
          -758 1392 121 258 121 hstemhm
          -6 260 352 260 hintmask 00000000
          hintmask 11110000
          430 1392 rmoveto
          310 126 128 122 11 callgsubr
          -122 126 -128 310 hvcurveto
          121 vmoveto
          -6 callsubr
          endchar
        </CharString>
        <CharString name="s">
          -378 -19 178 673 178 hstem
          75 1095 vstem
          75 74 rmoveto
          -59 132 129 -34 197 hhcurveto
          458 179 182 193 125 -75 117 -247 74 hvcurveto
          -56 17 rlineto
          -118 35 -20 29 24 vvcurveto
          31 31 24 77 54 107 -23 -31 59 vhcurveto
          88 161 rlineto
          34 -88 -177 37 -145 hhcurveto
          -385 -166 -181 -189 -146 98 -116 224 -66 hvcurveto
          57 -17 rlineto
          74 -22 53 -13 -43 vvcurveto
          -35 -37 -23 -87 -112 -91 38 59 -109 vhcurveto
          endchar
        </CharString>
        <CharString name="section">
          -29 -493 209 1585 209 hstem
          164 1263 vstem
          164 380 rmoveto
          -172 125 -138 205 -63 vhcurveto
          146 -44 rlineto
          166 -51 30 -40 -45 vvcurveto
          -66 -65 -45 -116 -95 -104 30 44 -88 vhcurveto
          -126 -190 rlineto
          -45 121 217 -48 212 hhcurveto
          446 189 208 232 140 -69 118 -138 72 hvcurveto
          138 102 69 131 127 vvcurveto
          175 -133 137 -197 61 vhcurveto
          -147 44 rlineto
          -165 51 -31 40 45 vvcurveto
          66 66 45 115 95 105 -30 -44 88 vhcurveto
          126 190 rlineto
          45 -122 -216 48 -213 hhcurveto
          -445 -189 -208 -232 -141 71 -118 136 -71 hvcurveto
          -138 -102 -69 -131 -127 vvcurveto
          386 239 rmoveto
          18 5 17 8 16 vhcurveto
          94 -28 rlineto
          282 -86 102 -70 -88 vvcurveto
          -19 -5 -17 -9 -16 vhcurveto
          -94 29 rlineto
          -281 86 -102 70 88 vvcurveto
          endchar
        </CharString>
        <CharString name="semicolon">
          -635 -464 901 120 455 hstemhm
          180 615 -615 623 hintmask 10010000
          488 557 -70 callsubr
          -308 -421 rmoveto
          335 -166 rlineto
          hintmask 01100000
          34 callsubr
          142 -111 rcurveline
          -36 callsubr
        </CharString>
        <CharString name="seven">
          -203 22 -21 hstem
          124 1213 vstem
          285 1 rmoveto
          323 hlineto
          729 1258 rlineto
          227 vlineto
          -197 -2 -1016 2 rlineto
          -473 391 vlineto
          360 12 rlineto
          endchar
        </CharString>
        <CharString name="six">
          102 -23 185 599 193 hstem
          603 94 vstem
          142 603 rmoveto
          -310 200 -316 536 458 290 232 293 249 -208 203 -371 -124 -101 -23 -43 -86 vhcurveto
          69 247 162 140 262 96 -91 135 rcurveline
          -607 -67 -389 -403 -433 vvcurveto
          738 -441 rmoveto
          -99 -84 77 323 44 1 42 3 39 hvcurveto
          49 45 54 25 68 hhcurveto
          122 84 -80 -210 -201 -77 -108 -117 hvcurveto
          endchar
        </CharString>
        <CharString name="slash">
          -391 40 callgsubr
          131 1003 vstem
          131 124 rmoveto
          273 -147 730 1385 -273 148 rlineto
          endchar
        </CharString>
        <CharString name="space">
          -997 endchar
        </CharString>
        <CharString name="sterling">
          -142 -1 230 -229 127 494 189 511 205 hstemhm
          180 1166 hintmask 01111000
          180 hmoveto
          163 hlineto
          hintmask 10111000
          1003 -1 rlineto
          230 -650 vlineto
          121 115 96 140 40 137 rrcurveto
          237 hlineto
          63 189 rlineto
          -279 263 hlineto
          180 73 68 112 33 36 -6 -10 39 vhcurveto
          26 162 rlineto
          41 -100 -98 18 -92 hhcurveto
          -320 -248 -226 -302 hvcurveto
          -187 -255 -190 255 vlineto
          hintmask 01111000
          -220 -74 -135 -181 -139 vhcurveto
          endchar
        </CharString>
        <CharString name="t">
          -597 826 165 hstem
          85 916 vstem
          197 379 rmoveto
          -248 122 -150 289 102 75 18 29 69 vhcurveto
          62 137 rlineto
          -112 -64 77 135 hvcurveto
          449 159 vlineto
          102 165 rlineto
          -261 330 -543 -330 -112 -165 112 hlineto
          endchar
        </CharString>
        <CharString name="thorn">
          49 -19 175 642 212 hstem
          640 43 37 callgsubr
          563 hlineto
          -52 77 112 -35 135 -39 callgsubr
          -156 -134 -68 -71 -75 hvcurveto
          780 -543 vlineto
          543 -1451 rmoveto
          551 vlineto
          28 35 46 19 49 -13 callgsubr
          -40 -44 17 27 -32 hvcurveto
          endchar
        </CharString>
        <CharString name="three">
          -60 -23 272 462 194 hstem
          121 1285 vstem
          121 139 rmoveto
          -99 161 217 -63 228 hhcurveto
          400 279 193 291 240 -191 193 -357 11 hvcurveto
          488 368 rlineto
          213 -1138 -372 435 vlineto
          217 11 -377 -291 rlineto
          -126 vlineto
          226 24 145 -109 -139 vvcurveto
          -121 -110 -114 -196 -125 -138 46 18 -53 vhcurveto
          endchar
        </CharString>
        <CharString name="threequarters">
          1398 21 -21 202 205 109 2 callsubr
          -216 1872 hintmask 11111001
          944 -21 callsubr
          hintmask 11110110
          -1795 -1137 -54 callsubr
          hintmask 11111010
          -45 callgsubr
          1439 -575 32 callgsubr
          hintmask 11111001
          -35 callgsubr
        </CharString>
        <CharString name="threesuperior">
          -258 513 2 callsubr
          hintmask 11011000
          200 630 -54 callsubr
          hintmask 11101000
          -45 callgsubr
          endchar
        </CharString>
        <CharString name="tilde">
          -439 45 callsubr
          8 callgsubr
          120 939 hintmask 00000000
          hintmask 10100000
          195 -61 callsubr
          hintmask 01100000
          -20 callsubr
          -56 callsubr
          hintmask 10100000
          36 callsubr
          endchar
        </CharString>
        <CharString name="tilde.cap">
          -439 5 callgsubr
          120 939 hintmask 00000000
          hintmask 01100000
          195 -33 callsubr
          hhcurveto
          hintmask 10100000
          -74 callgsubr
          -19 callsubr
          hhcurveto
          hintmask 01100000
          -75 callsubr
          endchar
        </CharString>
        <CharString name="two">
          -107 0 167 1091 252 hstem
          83 1275 vstem
          130 hmoveto
          6 2 -2 -2 rlineto
          1224 392 -382 hlineto
          -297 -24 rlineto
          457 222 217 249 240 vvcurveto
          243 -221 188 -392 -284 -245 -99 -113 -128 vhcurveto
          112 -175 rlineto
          84 100 120 51 118 hhcurveto
          170 98 -106 -164 -134 -66 -143 -267 -240 hvcurveto
          -338 -304 rlineto
          endchar
        </CharString>
        <CharString name="twosuperior">
          -299 531 301 541 245 hstem
          210 919 vstem
          231 531 -86 callsubr
        </CharString>
        <CharString name="u">
          -30 -19 1011 hstem
          673 232 vstem
          130 379 -63 callgsubr
          -543 vlineto
          endchar
        </CharString>
        <CharString name="uacute">
          0 callsubr
          497 -102 callgsubr
          -302 -907 -78 callgsubr
          hintmask 01100000
          -41 callgsubr
        </CharString>
        <CharString name="ucircumflex">
          12 callgsubr
          322 933 -582 232 hintmask 10010000
          387 -105 callsubr
          -192 -907 -86 callgsubr
          hlineto
          hintmask 01100000
          -9 callgsubr
        </CharString>
        <CharString name="udieresis">
          -30 -19 1011 164 394 43 callsubr
          45 callgsubr
          -763 232 hintmask 10010000
          903 -106 callsubr
          -276 -777 -32 callsubr
          vhcurveto
          hintmask 01100000
          -31 callgsubr
          hvcurveto
          -18 callgsubr
          -9 callgsubr
        </CharString>
        <CharString name="ugrave">
          0 callsubr
          432 -88 callgsubr
          -456 -1207 -63 callgsubr
          vlineto
          hintmask 01100000
          3 callgsubr
        </CharString>
        <CharString name="underscore">
          -390 -496 198 hstem
          -30 1288 vstem
          -30 -298 rmoveto
          -198 1288 198 vlineto
          endchar
        </CharString>
        <CharString name="v">
          -342 21 -21 22 -21 hstemhm
          3 1258 hintmask 01100000
          402 1 rmoveto
          282 hlineto
          hintmask 10100000
          -1 208 vlineto
          369 991 rlineto
          -224 hlineto
          -229 -644 -237 644 15 callgsubr
        </CharString>
        <CharString name="w">
          453 21 -21 22 -21 855 135 hstemhm
          3 2053 hintmask 01110000
          382 1 rmoveto
          286 hlineto
          hintmask 10110000
          -1 208 vlineto
          172 462 rlineto
          hintmask 01110000
          177 -461 rlineto
          273 hlineto
          hintmask 10110000
          -1 208 vlineto
          350 991 rlineto
          -220 hlineto
          -210 -617 -212 617 rlineto
          -568 hlineto
          92 -242 -145 -404 -222 646 15 callgsubr
        </CharString>
        <CharString name="x">
          -242 21 -21 22 -21 440 111 hstemhm
          30 1342 hintmask 01110000
          30 1 rmoveto
          292 hlineto
          227 274 rlineto
          hintmask 10110000
          199 -275 rlineto
          624 hlineto
          -414 564 355 427 rlineto
          -294 hlineto
          -196 -242 -177 242 rlineto
          -615 hlineto
          385 -533 rlineto
          endchar
        </CharString>
        <CharString name="y">
          -285 22 -21 hstem
          3 1315 vstem
          422 1 -77 callsubr
          -56 callgsubr
        </CharString>
        <CharString name="yacute">
          -285 22 -21 1171 0 callgsubr
          3 1315 -899 19 callgsubr
          484 -102 callgsubr
          3 -1285 -75 callgsubr
        </CharString>
        <CharString name="ydieresis">
          -285 22 -21 1155 394 hstemhm
          3 1315 -1191 45 callgsubr
          hintmask 11010000
          890 -106 callsubr
          29 -1155 -75 callgsubr
        </CharString>
        <CharString name="yen">
          128 21 -21 338 183 103 183 hstemhm
          165 1556 -1417 1412 hintmask 11101000
          304 338 rmoveto
          365 -338 608 338 280 hlineto
          65 183 rlineto
          -303 hlineto
          43 103 rlineto
          288 hlineto
          66 183 rlineto
          -278 hlineto
          hintmask 11110000
          283 679 -34 callgsubr
          320 -679 rlineto
          -180 hlineto
          hintmask 11101000
          -1 -183 rlineto
          268 hlineto
          48 -103 rlineto
          -315 hlineto
          endchar
        </CharString>
        <CharString name="z">
          -283 -1 165 663 164 hstem
          70 1195 vstem
          70 -1 rmoveto
          1156 165 -445 hlineto
          484 827 rlineto
          -1121 -164 448 hlineto
          endchar
        </CharString>
        <CharString name="zero">
          164 -18 185 1158 185 hstem
          142 1498 vstem
          142 746 rmoveto
          -483 261 -281 488 488 261 281 483 482 -261 282 -488 -488 -261 -282 -482 vhcurveto
          749 -579 rmoveto
          -101 -88 83 496 496 88 83 101 101 88 -83 -496 -496 -88 -83 -101 hvcurveto
          endchar
        </CharString>
      <CharString index="0">
        -107 callsubr
        hintmask 10111010
        -104 callsubr
      </CharString>
      <CharString index="1">
        rmoveto
        -276 218 -244 484 203 131 -48 callsubr
        -43 -81 -25 -86 hhcurveto
        -159 -85 85 148 -29 hvcurveto
        756 -57 callgsubr
        -338 -344 -166 -343 vhcurveto
        559 49 rmoveto
        202 3 63 -47 callsubr
        endchar
      </CharString>
      <CharString index="2">
        180 81 -71 -187 hvcurveto
        -8 vlineto
        -83 callsubr
        -150 -191 hvcurveto
        560 21 rmoveto
        70 49 50 90 39 38 -10 -20 33 vhcurveto
        -169 vlineto
        return
      </CharString>
      <CharString index="3">
        -101 callgsubr
        -95 callgsubr
        return
      </CharString>
      <CharString index="4">
        -24 callgsubr
        rmoveto
        236 15 228 55 184 91 -154 188 rcurveline
        -142 -102 -242 -94 -175 -40 rrcurveto
        return
      </CharString>
      <CharString index="5">
        -42 callsubr
        219 26 275 96 154 105 -154 187 rcurveline
        -154 -115 -176 -101 -229 -84 rrcurveto
        return
      </CharString>
      <CharString index="6">
        -24 callgsubr
        rmoveto
        127 13 150 37 124 44 124 -44 150 -37 127 -13 66 -12 callgsubr
        return
      </CharString>
      <CharString index="7">
        -103 callsubr
        -74 callsubr
        hvcurveto
        return
      </CharString>
      <CharString index="8">
        1732 rmoveto
        184 -91 228 -55 236 -15 65 113 rcurveline
        -175 40 -242 94 -142 102 rrcurveto
        return
      </CharString>
      <CharString index="9">
        -192 84 -147 101 -128 115 -129 -115 -146 -101 -191 -84 rrcurveto
        return
      </CharString>
      <CharString index="10">
        188 79 75 92 92 -79 75 -72 callsubr
        return
      </CharString>
      <CharString index="11">
        854 -562 rmoveto
        -161 -86 88 474 469 86 87 161 return
      </CharString>
      <CharString index="12">
        -192 64 -147 82 -128 89 -129 -89 -146 -82 -191 -64 rrcurveto
        return
      </CharString>
      <CharString index="13">
        -97 callgsubr
        -78 -75 -92 -92 78 27 callsubr
        return
      </CharString>
      <CharString index="14">
        -60 callgsubr
        -84 callsubr
        return
      </CharString>
      <CharString index="15">
        -81 callgsubr
        -19 callsubr
        -75 callsubr
        return
      </CharString>
      <CharString index="16">
        rmoveto
        253 hlineto
        -97 callsubr
        return
      </CharString>
      <CharString index="17">
        151 vvcurveto
        148 -102 96 -152 -137 -114 -98 -146 -1 vhcurveto
        return
      </CharString>
      <CharString index="18">
        -728 1487 rlineto
        -609 hlineto
        172 -375 rlineto
        -78 -645 rmoveto
        return
      </CharString>
      <CharString index="19">
        1399 rmoveto
        -46 callgsubr
        65 -12 callgsubr
        -57 callsubr
        rrcurveto
        return
      </CharString>
      <CharString index="20">
        rmoveto
        hintmask 01111010
        578 539 122 hlineto
        hintmask 10111010
        -95 callsubr
        hintmask 01111010
        -92 callsubr
        endchar
      </CharString>
      <CharString index="21">
        -32 callsubr
        -31 callgsubr
        vhcurveto
        -18 callgsubr
        return
      </CharString>
      <CharString index="22">
        rmoveto
        -367 218 -229 521 381 247 233 368 vhcurveto
        908 return
      </CharString>
      <CharString index="23">
        -51 callsubr
        451 -289 313 -565 return
      </CharString>
      <CharString index="24">
        -52 callgsubr
        -50 callsubr
        return
      </CharString>
      <CharString index="25">
        -102 callsubr
        hvcurveto
        hintmask 00101000
        -42 callgsubr
        vhcurveto
        endchar
      </CharString>
      <CharString index="26">
        -33 callsubr
        -74 callgsubr
        return
      </CharString>
      <CharString index="27">
        -97 callgsubr
        -72 -75 -92 return
      </CharString>
      <CharString index="28">
        -28 -35 -43 -14 -42 -49 callsubr
      </CharString>
      <CharString index="29">
        -86 callgsubr
        -543 -696 hlineto
        return
      </CharString>
      <CharString index="30">
        -100 callsubr
        -42 callgsubr
        hvcurveto
        endchar
      </CharString>
      <CharString index="31">
        35 callsubr
        385 hlineto
        268 -384 608 -1 -491 668 318 323 rlineto
        -300 hlineto
        -403 -417 rlineto
        return
      </CharString>
      <CharString index="32">
        -77 callsubr
        hintmask 11100000
        -56 callgsubr
      </CharString>
      <CharString index="33">
        128 73 -72 19 callsubr
        100 -27 callgsubr
        return
      </CharString>
      <CharString index="34">
        rmoveto
        -127 90 -101 218 -90 callsubr
        vhcurveto
        endchar
      </CharString>
      <CharString index="35">
        -37 callgsubr
        89 -69 rcurveline
        -28 callgsubr
        vhcurveto
        return
      </CharString>
      <CharString index="36">
        rmoveto
        -457 288 -312 566 return
      </CharString>
      <CharString index="37">
        1112 rmoveto
        129 115 146 101 191 84 -65 -12 callgsubr
        -127 -18 -150 -50 -124 -63 -125 63 -149 50 -127 18 -66 -114 rcurveline
        192 -84 147 -101 128 -115 rrcurveto
        return
      </CharString>
      <CharString index="38">
        -26 -113 rlineto
        -7 44 33 -2 67 hhcurveto
        303 157 109 123 103 -84 58 -225 hvcurveto
        -23 hlineto
        return
      </CharString>
      <CharString index="39">
        -566 -288 -313 -451 return
      </CharString>
      <CharString index="40">
        -24 callgsubr
        rmoveto
        128 90 147 81 192 64 -66 -12 callgsubr
        -127 -13 -150 -50 -124 -53 -124 53 -150 50 -127 13 -65 -114 rcurveline
        191 -64 146 -81 129 -90 rrcurveto
        return
      </CharString>
      <CharString index="41">
        273 -135 -41 -100 -54 -70 -88 -91 rlinecurve
        return
      </CharString>
      <CharString index="42">
        -58 callgsubr
        -63 callsubr
      </CharString>
      <CharString index="43">
        -61 callsubr
        -20 callsubr
        return
      </CharString>
      <CharString index="44">
        -78 callgsubr
        -64 callsubr
        return
      </CharString>
      <CharString index="45">
        1182 rmoveto
        217 93 85 98 98 -93 85 -217 -217 -93 -85 -98 -98 93 -85 217 hvcurveto
        100 vmoveto
        -83 -44 40 43 43 44 40 83 83 44 -40 -43 -43 -44 -40 -83 hvcurveto
        return
      </CharString>
      <CharString index="46">
        30 callsubr
        -7 callsubr
        return
      </CharString>
      <CharString index="47">
        rmoveto
        -313 265 -201 447 return
      </CharString>
      <CharString index="48">
        -447 -265 -201 -314 return
      </CharString>
      <CharString index="49">
        -273 -203 207 317 319 205 204 275 102 100 -28 -36 74 hvcurveto
        return
      </CharString>
      <CharString index="50">
        91 rlineto
        235 -196 292 -449 return
      </CharString>
      <CharString index="51">
        426 1011 rlineto
        -267 hlineto
        -240 -614 -240 614 15 callgsubr
      </CharString>
      <CharString index="52">
        -72 callsubr
        -78 return
      </CharString>
      <CharString index="53">
        -58 callsubr
        85 14 callgsubr
        190 16 callgsubr
        return
      </CharString>
      <CharString index="54">
        -88 callsubr
        -26 callgsubr
        return
      </CharString>
      <CharString index="55">
        109 238 rlineto
        586 hlineto
        return
      </CharString>
      <CharString index="56">
        447 265 201 313 return
      </CharString>
      <CharString index="57">
        578 hlineto
        1 1486 rlineto
        return
      </CharString>
      <CharString index="58">
        1 401 rlineto
        677 229 return
      </CharString>
      <CharString index="59">
        140 -76 callgsubr
        1077 -543 vlineto
        return
      </CharString>
      <CharString index="60">
        296 -23 -31 callsubr
        return
      </CharString>
      <CharString index="61">
        154 -105 275 -96 219 -26 return
      </CharString>
      <CharString index="62">
        -289 291 vlineto
        120 18 -229 -196 rlineto
        -101 vlineto
        141 18 108 -65 -96 vvcurveto
        -83 -78 -71 -138 -94 -75 33 12 -37 vhcurveto
        return
      </CharString>
      <CharString index="63">
        -32 callgsubr
        -26 callgsubr
        75 1327 return
      </CharString>
      <CharString index="64">
        -678 398 518 20 callsubr
        return
      </CharString>
      <CharString index="65">
        -474 -86 -88 -160 return
      </CharString>
      <CharString index="66">
        -64 callsubr
        9 callsubr
      </CharString>
      <CharString index="67">
        543 991 3 callgsubr
      </CharString>
      <CharString index="68">
        hhcurveto
        361 224 203 311 338 -243 177 -301 return
      </CharString>
      <CharString index="69">
        -37 callsubr
        -26 callgsubr
        75 44 callgsubr
        return
      </CharString>
      <CharString index="70">
        -73 60 -57 117 vhcurveto
        -9 -38 -21 -35 -36 -38 return
      </CharString>
      <CharString index="71">
        -31 -69 hvcurveto
        -646 543 return
      </CharString>
      <CharString index="72">
        151 205 -151 655 -417 hlineto
        -511 -705 rlineto
        279 50 rmoveto
        249 364 rlineto
        -364 vlineto
        endchar
      </CharString>
      <CharString index="73">
        rlineto
        -262 hlineto
        -295 -766 -366 766 29 callgsubr
        return
      </CharString>
      <CharString index="74">
        177 165 -253 236 253 236 -177 165 return
      </CharString>
      <CharString index="75">
        -169 -19 178 674 177 return
      </CharString>
      <CharString index="76">
        146 146 46 118 121 return
      </CharString>
      <CharString index="77">
        183 663 183 return
      </CharString>
      <CharString index="78">
        -53 callgsubr
        420 713 -249 61 hintmask 01111100
        return
      </CharString>
      <CharString index="79">
        99 90 55 108 83 vvcurveto
        96 -70 63 -107 return
      </CharString>
      <CharString index="80">
        41 146 105 hvcurveto
        return
      </CharString>
      <CharString index="81">
        162 0 callgsubr
        return
      </CharString>
      <CharString index="82">
        -129 -92 72 -153 hhcurveto
        36 callsubr
        return
      </CharString>
      <CharString index="83">
        1571 return
      </CharString>
      <CharString index="84">
        188 -408 rlineto
        endchar
      </CharString>
      <CharString index="85">
        306 rmoveto
        180 342 350 178 -350 330 -180 -330 -349 -178 349 hlineto
        return
      </CharString>
      <CharString index="86">
        247 20 -28 callsubr
        return
      </CharString>
      <CharString index="87">
        56 216 237 367 vvcurveto
        826 return
      </CharString>
      <CharString index="88">
        21 -21 -16 callgsubr
        hstemhm
        return
      </CharString>
      <CharString index="89">
        48 -144 rlineto
        479 991 return
      </CharString>
      <CharString index="90">
        20 -21 238 229 return
      </CharString>
      <CharString index="91">
        -24 callgsubr
        349 return
      </CharString>
      <CharString index="92">
        rmoveto
        564 vlineto
        181 -5 109 -110 -167 vvcurveto
        -170 -106 -109 -184 -3 vhcurveto
        endchar
      </CharString>
      <CharString index="93">
        -44 callgsubr
        -1021 713 hintmask 11101000
        return
      </CharString>
      <CharString index="94">
        hhcurveto
        127 92 -91 -230 -226 -100 -95 -133 return
      </CharString>
      <CharString index="95">
        114 rcurveline
        return
      </CharString>
      <CharString index="96">
        -38 callgsubr
        -1068 19 callgsubr
        return
      </CharString>
      <CharString index="97">
        742 -21 callsubr
        -1347 -1239 rmoveto
        return
      </CharString>
      <CharString index="98">
        -543 -696 hlineto
        -41 callgsubr
      </CharString>
      <CharString index="99">
        -25 callsubr
        -1414 19 callgsubr
        return
      </CharString>
      <CharString index="100">
        211 -27 callsubr
        return
      </CharString>
      <CharString index="101">
        116 -83 92 -199 return
      </CharString>
      <CharString index="102">
        190 hlineto
        490 217 236 264 301 -231 202 -529 -3 hvcurveto
        return
      </CharString>
      <CharString index="103">
        13 callsubr
        -83 callgsubr
        return
      </CharString>
      <CharString index="104">
        362 1486 -220 hlineto
        -1 -792 return
      </CharString>
      <CharString index="105">
        -160 -145 -56 -107 -141 return
      </CharString>
      <CharString index="106">
        -514 440 -260 260 return
      </CharString>
      <CharString index="107">
        414 hstemhm
        return
      </CharString>
      <CharString index="108">
        -795 21 -21 41 callgsubr
        hstemhm
        54 713 -627 543 hintmask 10010000
        return
      </CharString>
      <CharString index="109">
        14 callsubr
        -83 -92 -116 return
      </CharString>
      <CharString index="110">
        -543 hlineto
        endchar
      </CharString>
      <CharString index="111">
        196 196 -179 144 -303 -304 -179 -144 -196 return
      </CharString>
      <CharString index="112">
        1621 -7 callgsubr
        return
      </CharString>
      <CharString index="113">
        hstem
        120 return
      </CharString>
      <CharString index="114">
        543 696 hlineto
        35 32 return
      </CharString>
      <CharString index="115">
        210 -27 callsubr
        return
      </CharString>
      <CharString index="116">
        -92 72 -75 188 return
      </CharString>
      <CharString index="117">
        400 1063 -334 hlineto
        12 callsubr
        return
      </CharString>
      <CharString index="118">
        122 -126 128 -310 -310 -126 -128 -122 return
      </CharString>
      <CharString index="119">
        -30 -19 1011 180 0 callgsubr
        return
      </CharString>
      <CharString index="120">
        344 0 -20 hstemhm
        200 646 return
      </CharString>
      <CharString index="121">
        349 hstemhm
        return
      </CharString>
      <CharString index="122">
        rlineto
        -568 hlineto
        endchar
      </CharString>
      <CharString index="123">
        1256 return
      </CharString>
      <CharString index="124">
        41 callgsubr
        6 callgsubr
        return
      </CharString>
      <CharString index="125">
        vstem
        -1 callsubr
        return
      </CharString>
      <CharString index="126">
        713 hintmask 11010000
        return
      </CharString>
      <CharString index="127">
        -48 144 rlineto
        return
      </CharString>
      <CharString index="128">
        187 408 return
      </CharString>
      <CharString index="129">
        21 -21 hstem
        return
      </CharString>
      <CharString index="130">
        45 56 57 42 -49 -140 -140 -42 -49 -57 hvcurveto
        return
      </CharString>
      <CharString index="131">
        -112 -65 -65 -65 hvcurveto
        endchar
      </CharString>
      <CharString index="132">
        -661 -496 165 1817 165 hstem
        return
      </CharString>
      <CharString index="133">
        75 495 rmoveto
        -337 243 -177 301 return
      </CharString>
      <CharString index="134">
        -20 -50 hhcurveto
        -127 -92 91 230 hvcurveto
        endchar
      </CharString>
      <CharString index="135">
        55 1711 return
      </CharString>
      <CharString index="136">
        rlineto
        -633 hlineto
        return
      </CharString>
      <CharString index="137">
        hstem
        180 return
      </CharString>
      <CharString index="138">
        -17 callsubr
        -42 -85 -25 -81 hhcurveto
        return
      </CharString>
      <CharString index="139">
        rmoveto
        528 -202 400 202 hlineto
        return
      </CharString>
      <CharString index="140">
        rmoveto
        890 189 -890 hlineto
        endchar
      </CharString>
      <CharString index="141">
        vstem
        21 callsubr
        return
      </CharString>
      <CharString index="142">
        rmoveto
        -50 callgsubr
        return
      </CharString>
      <CharString index="143">
        506 147 506 hintmask 11000000
        return
      </CharString>
      <CharString index="144">
        vstem
        140 -495 rmoveto
        543 return
      </CharString>
      <CharString index="145">
        236 191 64 76 130 return
      </CharString>
      <CharString index="146">
        0 1010 hstem
        683 213 return
      </CharString>
      <CharString index="147">
        -23 1533 hstem
        return
      </CharString>
      <CharString index="148">
        -12 callsubr
        414 return
      </CharString>
      <CharString index="149">
        -149 246 vlineto
        return
      </CharString>
      <CharString index="150">
        208 802 return
      </CharString>
      <CharString index="151">
        1424 return
      </CharString>
      <CharString index="152">
        1296 return
      </CharString>
</ttFont>
